<svg xmlns="http://www.w3.org/2000/svg" viewBox="0 0 96 96" fill="none">
  <rect width="96" height="96" rx="48" fill="#E7C5CF"/>
  <circle cx="48" cy="36" r="18" fill="#F7E4E9"/>
  <path d="M23 89c3.8-17.7 14-27 25-27s21.2 9.3 25 27H23Z" fill="#F7E4E9"/>
  <path d="M28 35c0-13.1 8.1-22 20-22 11.3 0 19 7.3 19 18.8v8.2c-3.2-3.4-7.2-5.1-12.1-5.1-6.3 0-12.2-2-17.6-6.1-1.5 4.2-4.6 8.5-9.3 12.8V35Z" fill="#5A3047"/>
  <path d="M31 90c4.4-11.1 10.1-16.7 17-16.7S60.6 78.9 65 90H31Z" fill="#8A5FB5" opacity=".92"/>
</svg>
