<svg xmlns="http://www.w3.org/2000/svg" viewBox="0 0 96 96" fill="none">
  <rect width="96" height="96" rx="48" fill="#C9D6DE"/>
  <circle cx="48" cy="36" r="18" fill="#EAF1F5"/>
  <path d="M23 89c3.8-17.7 14-27 25-27s21.2 9.3 25 27H23Z" fill="#EAF1F5"/>
  <path d="M30 34c0-12.8 7.3-21 18.4-21 11.7 0 18.6 8 18.6 20.9V40c-2.9-3.2-6.7-4.8-11.3-4.8-8.7 0-15.7-3.3-20.9-10-1.1 4.6-2.7 8.3-4.8 11.1V34Z" fill="#3C454D"/>
  <path d="M31 90c4.4-11.1 10.1-16.7 17-16.7S60.6 78.9 65 90H31Z" fill="#2E6FB7" opacity=".92"/>
</svg>
