<svg xmlns="http://www.w3.org/2000/svg" viewBox="0 0 96 96" fill="none">
  <rect width="96" height="96" rx="48" fill="#E8D2C4"/>
  <circle cx="48" cy="36" r="18" fill="#F7E6DA"/>
  <path d="M23 89c3.8-17.7 14-27 25-27s21.2 9.3 25 27H23Z" fill="#F7E6DA"/>
  <path d="M29 33c0-12.5 7.7-20 19-20 10.8 0 18 7.1 18 18.4v6.7c-2.6-2.4-5.8-3.7-9.7-3.7-8.4 0-16.9-4.6-20.5-11.8-1.4 5.9-3.6 10.3-6.8 13.2V33Z" fill="#5E3C2D"/>
  <path d="M31 90c4.4-11.1 10.1-16.7 17-16.7S60.6 78.9 65 90H31Z" fill="#587EA7" opacity=".92"/>
</svg>
