<?xml version="1.0" encoding="UTF-8"?>
<svg id="Camada_2" data-name="Camada 2" xmlns="http://www.w3.org/2000/svg" viewBox="0 0 857.26 209.92">
  <defs>
    <style>
      .cls-1 {
        fill: #fff;
      }
    </style>
  </defs>
  <g id="Camada_1-2" data-name="Camada 1">
    <g>
      <g>
        <path class="cls-1" d="M351.08,90.13c-.08-.18-.29-.39-.66-.68l-9.23-9.17c-16.09-15.97-39.39-22.21-63.04-18.43v46.73c17.3-8.27,36.22,0,42.15,16.27,6.42,17.57-4.54,36.53-22.91,39.73-17.77,3.1-34.44-9.77-35.27-29.33l-44.42.06c.19,24.61,11.82,47.09,32.79,60.43,21.85,18.48,53.27,17.73,78.22,3.44,47.46-27.17,45.7-84.85,22.37-109.05Z"/>
        <path class="cls-1" d="M56.51,135.06L0,208.79c13.73,2.26,26.74.31,41.41,1.03l34.17-44.26,80.47.17.31,43.7c12.72.76,24.74.4,38.08.18l1.62-.05c1.16-.03,2.66-1.33,2.66-3.41l-.03-71.1H56.51Z"/>
        <path class="cls-1" d="M262.52,120.04l.31-76.13,75.83-.17c1.19-9.22,1.05-17.93.1-28.03-.54-5.69-6.79-15.17-13.48-15.19l-105.54.19-.81,82.78-.53,36.95s31.89.16,44.12-.4Z"/>
        <path class="cls-1" d="M199.72,108.25l-.22-29.33h0s-.33-43.84-.33-43.84l-.14-34.37-84.96-.71-19.35.71.15.05c-8.1.59-14.14,6.85-15.1,15.63-.96,8.87-.72,17.71-.34,27.02l46.18.87-37.4,49.43h0l-21.44,26.74,39.35.37,10.83-14.26,38.89-49.42.13,21.78h0v41.88h43.83l-.09-12.33c0-.07.01-.14.01-.22ZM195.97,47.01c-.05.21-.19.45-.22.66-.04-.07.67.1.62.04.08-.15-.49-.56-.4-.7Z"/>
      </g>
      <g>
        <path class="cls-1" d="M405.59,137.18v-56.13h12.35v44.98h27.98v11.15h-40.33Z"/>
        <path class="cls-1" d="M510.15,120.38c-1.5,3.5-3.57,6.57-6.21,9.22-2.65,2.65-5.8,4.73-9.46,6.25-3.66,1.52-7.66,2.28-11.99,2.28s-8.31-.76-11.95-2.28c-3.64-1.52-6.78-3.58-9.42-6.17-2.65-2.59-4.7-5.64-6.17-9.14-1.47-3.5-2.21-7.26-2.21-11.27v-.16c0-4.01.75-7.76,2.24-11.27,1.5-3.5,3.57-6.57,6.21-9.22,2.65-2.65,5.8-4.73,9.46-6.25,3.66-1.52,7.66-2.28,11.99-2.28s8.31.76,11.95,2.28c3.63,1.52,6.78,3.58,9.42,6.17,2.65,2.59,4.7,5.64,6.17,9.14,1.47,3.5,2.21,7.26,2.21,11.27v.16c0,4.01-.75,7.77-2.24,11.27ZM499.48,109.11c0-2.41-.41-4.68-1.24-6.82-.83-2.14-2-4.01-3.53-5.61s-3.33-2.87-5.41-3.81c-2.08-.93-4.36-1.4-6.82-1.4s-4.8.45-6.86,1.36c-2.06.91-3.82,2.16-5.29,3.77-1.47,1.6-2.62,3.46-3.45,5.57-.83,2.11-1.24,4.37-1.24,6.78v.16c0,2.41.41,4.68,1.24,6.82.83,2.14,2,4.01,3.53,5.61s3.31,2.87,5.37,3.81c2.06.94,4.34,1.4,6.86,1.4s4.73-.45,6.82-1.36c2.08-.91,3.86-2.16,5.33-3.77,1.47-1.6,2.62-3.46,3.45-5.57.83-2.11,1.24-4.37,1.24-6.78v-.16Z"/>
        <path class="cls-1" d="M564.07,135.53c-3.98,1.74-8.54,2.61-13.67,2.61-4.38,0-8.38-.72-11.99-2.16s-6.71-3.45-9.3-6.01c-2.59-2.57-4.61-5.61-6.05-9.14-1.44-3.53-2.16-7.38-2.16-11.55v-.16c0-4.01.73-7.76,2.21-11.27,1.47-3.5,3.51-6.57,6.13-9.22,2.62-2.65,5.72-4.73,9.3-6.25,3.58-1.52,7.51-2.28,11.79-2.28,2.51,0,4.8.17,6.86.52,2.06.35,3.97.84,5.73,1.48,1.76.64,3.42,1.44,4.97,2.41,1.55.96,3.05,2.06,4.49,3.29l-7.78,9.38c-1.07-.91-2.14-1.71-3.21-2.41-1.07-.69-2.18-1.28-3.33-1.76-1.15-.48-2.39-.85-3.73-1.12-1.34-.27-2.81-.4-4.41-.4-2.25,0-4.34.47-6.29,1.41-1.95.94-3.66,2.2-5.13,3.78-1.47,1.58-2.62,3.43-3.45,5.55-.83,2.12-1.24,4.38-1.24,6.79v.16c0,2.57.41,4.94,1.24,7.11.83,2.17,2,4.06,3.53,5.67,1.52,1.61,3.31,2.85,5.37,3.74,2.06.88,4.34,1.33,6.86,1.33,4.6,0,8.47-1.13,11.63-3.39v-8.07h-12.43v-10.66h24.38v24.38c-2.89,2.46-6.32,4.56-10.3,6.29Z"/>
        <path class="cls-1" d="M586.8,137.18v-56.13h12.35v56.13h-12.35ZM587.92,76.64l9.06-14.19,10.5,4.57-10.26,9.62h-9.3Z"/>
        <path class="cls-1" d="M652.24,127.99c-1.01,2.16-2.42,3.98-4.22,5.45-1.81,1.47-3.96,2.59-6.46,3.37-2.5.77-5.28,1.16-8.33,1.16-4.28,0-8.47-.74-12.59-2.21-4.12-1.47-7.86-3.73-11.23-6.78l7.3-8.74c2.57,2.08,5.2,3.74,7.9,4.97,2.7,1.23,5.65,1.84,8.86,1.84,2.57,0,4.56-.47,5.97-1.4,1.42-.93,2.12-2.23,2.12-3.89v-.16c0-.8-.15-1.51-.44-2.13-.3-.61-.86-1.19-1.69-1.72-.83-.53-1.98-1.07-3.46-1.6-1.47-.53-3.39-1.1-5.75-1.68-2.84-.69-5.41-1.47-7.72-2.33-2.31-.85-4.26-1.91-5.87-3.17-1.61-1.26-2.85-2.82-3.74-4.69-.88-1.87-1.33-4.2-1.33-6.98v-.16c0-2.57.48-4.88,1.43-6.94.96-2.06,2.3-3.83,4.02-5.33,1.73-1.5,3.79-2.65,6.18-3.45,2.4-.8,5.04-1.2,7.92-1.2,4.12,0,7.9.61,11.35,1.84,3.45,1.23,6.62,2.99,9.5,5.29l-6.41,9.3c-2.51-1.71-4.97-3.06-7.38-4.05-2.41-.99-4.81-1.48-7.22-1.48s-4.21.47-5.41,1.4c-1.2.94-1.8,2.1-1.8,3.49v.16c0,.91.17,1.7.52,2.37.35.67.98,1.27,1.89,1.8.91.53,2.16,1.04,3.74,1.52,1.58.48,3.58,1.04,5.99,1.68,2.84.75,5.37,1.59,7.6,2.53,2.22.94,4.1,2.06,5.63,3.37,1.53,1.31,2.68,2.85,3.46,4.61s1.17,3.88,1.17,6.33v.16c0,2.78-.5,5.25-1.51,7.42Z"/>
        <path class="cls-1" d="M689.92,92.43v44.74h-12.35v-44.74h-17.08v-11.39h46.51v11.39h-17.08Z"/>
        <path class="cls-1" d="M717.02,137.18v-56.13h12.35v56.13h-12.35Z"/>
        <path class="cls-1" d="M788.22,132.28c-1.55,1.23-3.25,2.29-5.09,3.17-1.84.88-3.86,1.55-6.05,2-2.19.45-4.65.68-7.38.68-4.12,0-7.94-.75-11.47-2.25-3.53-1.5-6.58-3.54-9.14-6.13-2.57-2.59-4.57-5.65-6.01-9.18-1.44-3.53-2.16-7.3-2.16-11.31v-.16c0-4.01.72-7.76,2.16-11.27,1.44-3.5,3.45-6.57,6.01-9.22s5.64-4.73,9.22-6.25c3.58-1.52,7.54-2.28,11.87-2.28,2.62,0,5.01.21,7.18.64,2.16.43,4.13,1.02,5.89,1.76,1.76.75,3.39,1.66,4.89,2.73,1.5,1.07,2.89,2.25,4.17,3.53l-7.86,9.06c-2.19-1.98-4.42-3.53-6.7-4.65-2.27-1.12-4.82-1.68-7.66-1.68-2.35,0-4.53.45-6.53,1.36-2,.91-3.73,2.16-5.17,3.77-1.44,1.6-2.57,3.46-3.37,5.57-.8,2.11-1.2,4.37-1.2,6.78v.16c0,2.41.4,4.68,1.2,6.82.8,2.14,1.91,4.01,3.33,5.61,1.42,1.6,3.13,2.87,5.13,3.81,2,.94,4.21,1.4,6.62,1.4,3.21,0,5.92-.59,8.14-1.76,2.22-1.18,4.42-2.78,6.62-4.81l7.86,7.94c-1.44,1.55-2.94,2.94-4.49,4.17Z"/>
        <path class="cls-1" d="M844.35,137.18l-5.13-12.59h-23.73l-5.13,12.59h-12.59l24.05-56.53h11.39l24.05,56.53h-12.91ZM827.35,95.48l-7.46,18.2h14.91l-7.46-18.2Z"/>
      </g>
    </g>
  </g>
</svg>