<?xml version="1.0" encoding="UTF-8"?>
<svg id="Camada_2" data-name="Camada 2" xmlns="http://www.w3.org/2000/svg" viewBox="0 0 617.95 208.53">
  <defs>
    <style>
      .cls-1 {
        fill: #fff;
      }
    </style>
  </defs>
  <g id="Camada_1-2" data-name="Camada 1">
    <g>
      <path class="cls-1" d="M89.4,110.94c-10.57,3.88-20.82,7.81-31,12.64-9.53,4.63-18.46,9.53-26.92,15.85-7.66,5.33-13.62,11.8-20.02,18.81L79.6,16.08c2.86-5.96,7.73-10.22,13.53-13.01C97.59,1.3,101.98.05,106.94.05l40.19-.05,36.54,76.23c-5.53,3.66-10.92,6.15-16.65,8.66-9.44,3.85-18.78,7.06-28.83,10.32l-20.9-45.77-27.89,61.5Z"/>
      <path class="cls-1" d="M189.71,204.5c-2.29-2.68-4.53-5.26-6-8.52l-19.91-44.31c7.56-3.89,14.77-7.62,21.85-12.02s14.14-9.63,21.35-14.78l39.64,82.71-49.27.09c-2.97,0-5.21-1.38-7.65-3.18Z"/>
      <path class="cls-1" d="M0,208.12c.36-21.31,7-39.85,21.98-54.77,4.05-4.03,8-7.54,12.65-10.88,8.91-6.41,18.24-11.61,28.25-16.19,9.56-4.37,18.87-8.28,28.89-11.53l39.32-12.75c17.4-5.64,35.62-10.94,51.49-19.91,8.45-4.78,21.36-15.26,14.86-26.17-2.62-4.4-6.53-6.95-10.64-9.82,6.36,3.17,14.14,8.49,14.02,16.46-.13,9.18-10.06,17.47-17.2,21.91-14.83,9.24-33.41,15.57-49.92,21.61l-38.73,14.16c-12.25,4.48-23.73,9.84-35.15,16.09-8.63,4.73-16.55,9.91-23.98,16.34-17.3,14.94-24.72,32.23-24.51,55.48l-11.35-.02Z"/>
      <path class="cls-1" d="M122.84,207.82c-3.66.41-7.28.39-11.44.34-.25-18.17,5.87-37.75,18.7-50.49,7.57-7.52,18.55-13.07,28.41-17.36,14.28-6.21,27.5-13.71,40.27-22.63s27.36-19.14,35.36-33.5c13.8-24.77-17.72-42.27-36.58-49.58l-11.15-4.32c16.76,3.57,38.41,12.84,49.06,26.49,5.6,7.18,7.3,16.09,4.34,24.74-6.27,18.35-27.27,33.8-42.48,44.95-10.41,7.62-21.12,14.05-32.65,19.84-16.1,8.08-28.73,13.82-36.48,31.22-4.22,9.36-5.79,19.12-5.37,30.31Z"/>
      <path class="cls-1" d="M393.38,88.62c-.84,17.33-14.48,27.3-30.67,27.29l-25.22-.03v-58.07s27.29.12,27.29.12c7.78.03,14.95,3.17,20.56,8.3,5.96,5.92,8.46,13.76,8.04,22.4ZM378.07,85.65c-.44-8.36-6.15-14.62-14.42-14.68l-11.11-.08v31.91s10.69-.07,10.69-.07c9.16-.06,15.31-7.87,14.83-17.08Z"/>
      <path class="cls-1" d="M598.71,107.11l-24.12.03-3,8.83-16.22-.11,21.82-58.04h18.87s21.9,58.01,21.9,58.01l-16.19.16-3.05-8.87ZM594.52,94.42l-7.8-23.11-7.9,23.13,15.7-.02Z"/>
      <path class="cls-1" d="M313.98,107.11h-24.05s-3.02,8.8-3.02,8.8l-16.24-.09,21.81-58,18.85-.03,21.91,58.01-16.2.17-3.06-8.84ZM309.79,94.38l-7.82-23.12-7.88,23.17,15.7-.06Z"/>
      <path class="cls-1" d="M435.35,107.15l-24.12-.06-2.99,8.81-16.28-.05,21.81-58.04,18.87-.02,21.9,58-16.21.17-2.99-8.82ZM431.12,94.38l-7.77-23.09-7.94,23.13,15.71-.03Z"/>
      <path class="cls-1" d="M490.86,96.02c-5.79.39-11.01.13-16.96.22l-.07,19.66-14.97.02v-58.11s31.22.14,31.22.14c10.59.05,18.24,8.68,18.07,19.03.29,10.11-6.85,18.34-17.28,19.04ZM486.4,83.43c4.12-.01,6.67-3.14,6.53-6.7-.12-3.21-2.64-6.24-6.33-6.26l-12.69-.06-.04,13.05,12.53-.04Z"/>
      <path class="cls-1" d="M441.66,187.58c-18.92,4.51-36.68-6.54-38.41-25.88-.79-8.78,1.58-17.29,7.51-23.76,6.55-7.15,15.75-9.95,25.24-9.35,16.32,1.03,28.01,13.91,27.84,30.16-.14,13.63-8.4,25.53-22.18,28.82ZM446.66,171.66c5.39-6.47,5.65-15.36,2.42-22.54-2.73-6.07-8.45-9.46-15.01-9.66s-12.08,2.38-15.31,7.92c-4.41,7.56-4.15,17.73,1.69,24.58,6.67,7.82,19.52,7.73,26.21-.3Z"/>
      <path class="cls-1" d="M513.23,166l-15.32.1-.13-10.6h27.65s0,22.16,0,22.16c-7.85,9.02-19.65,12.57-31.28,10.42-14.78-2.73-24.56-14.96-24.44-29.83s10.18-26.94,25.02-29.21c11.98-1.83,23.27,1.54,29.85,12.19l-9.98,5.47c-4.21-5.62-10.42-8.19-17.53-6.93-11.76,2.09-17.14,14.76-13.53,25.64,2.26,6.8,8.09,11.52,15.25,12.17,5.23.47,10.13-1.01,14.36-4.15l.07-7.42Z"/>
      <polygon class="cls-1" points="543.23 115.78 528.19 115.93 528.16 70.96 511.84 70.8 511.87 57.79 559.37 57.79 559.45 70.82 543.24 70.9 543.23 115.78"/>
      <polygon class="cls-1" points="400.03 176.7 400.15 187.55 363.19 187.48 363.2 129.52 375.47 129.45 375.52 176.73 400.03 176.7"/>
      <path class="cls-1" d="M113.03,143.12c-13.43,5.44-25.54,12.74-36.24,22.9l-6.54-6.9c11.83-10.41,25.13-17.88,39.81-23.16l2.97,7.17Z"/>
      <path class="cls-1" d="M140.45,130.47l-2.98-5.92c13.6-6.2,26.62-12.55,39.64-20.01l2.56,4.14c-12.76,8.01-25.48,14.86-39.23,21.79Z"/>
      <path class="cls-1" d="M59.76,208.3l-11.47.23c-.04-8.12,1.05-15.33,3.74-22.98l10.08,3.38c-1.91,6.44-2.62,12.36-2.35,19.37Z"/>
      <path class="cls-1" d="M204.33,90.74c-1.08-.97-1.77-1.71-2.58-2.65,7.44-6.57,20.22-17.85,13.65-28.69-2.98-4.91-6.56-6.07-3.55-7.33,2.12,1.75,4.23,4.05,5.73,6.47,7.29,11.73-4.64,24.25-13.26,32.21Z"/>
      <path class="cls-1" d="M184.94,38.04c-3.62-1.06-7.16-2.47-10.64-4.06,3.6,1.04,7.14,1.96,10.64,4.06Z"/>
      <path class="cls-1" d="M186.08,30.16c-.98-.03-1.76-.23-2.51-.6.98.03,1.76.23,2.51.6Z"/>
      <circle class="cls-1" cx="182.4" cy="29.26" r=".26"/>
      <circle class="cls-1" cx="173.32" cy="33.7" r=".2"/>
      <circle class="cls-1" cx="180.99" cy="28.85" r=".2"/>
      <circle class="cls-1" cx="185.43" cy="45.41" r=".2"/>
      <circle class="cls-1" cx="184.62" cy="45.01" r=".2"/>
      <circle class="cls-1" cx="186.24" cy="45.81" r=".2"/>
      <circle class="cls-1" cx="183.82" cy="44.6" r=".2"/>
      <circle class="cls-1" cx="183.01" cy="44.2" r=".2"/>
    </g>
  </g>
</svg>