<?xml version="1.0" encoding="UTF-8"?>
<svg id="Camada_2" data-name="Camada 2" xmlns="http://www.w3.org/2000/svg" viewBox="0 0 924.38 167.39">
  <defs>
    <style>
      .cls-1 {
        fill: #fff;
      }
    </style>
  </defs>
  <g id="Camada_1-2" data-name="Camada 1">
    <g>
      <g>
        <path class="cls-1" d="M341.6,82.9l-32.12-.35c-1.29-3.74-1.02-7.48-.32-11.8h46.77c.43,10.46.52,20.37.03,30.38-.34,7.02-5.43,11.74-12.31,11.67l-48.21-.5c-11.19-.12-19.56-7.67-20.45-18.86-.85-10.75-.91-21.58.01-32.36,1.09-12.71,11.22-19.08,22.75-19.09l58.1-.04c.68,4.96.59,9.19.02,14.21l-56.45.34c-5.3.03-8.96,4.24-9.2,9.34-.35,7.61-.31,15.1-.02,22.65.22,5.72,4.14,9.71,9.81,9.72l36.87.06c6.77.01,4.61-8.78,4.71-15.35Z"/>
        <path class="cls-1" d="M916.24,112.62c-7.38.3-16.57,1.35-20.41-3.61l-39.68-51.34c-.59-.76-1.26-.99-1.85-1.01-.93-.03-1.36.99-1.36,2.21l-.17,53.45c-5.2.63-9.64.69-14.98-.05l.06-62.62c0-4.4,3.48-7.72,7.43-7.74l12.91-.06c3.44-.02,6.15,1.74,8.25,4.48l38.87,50.58c.41.54,2.87,1.59,2.88.55l.52-55.25c5.15-.58,9.76-.77,14.9.19l-.03,62.13c0,4.48-3.09,7.93-7.35,8.1Z"/>
        <path class="cls-1" d="M602.79,112.19c-5.51.89-10.14.81-15.27.05l-.26-55.88-33.74-.27c-.8-4.9-.86-9.28.04-14.22l82.97-.04c1.21,4.88.81,9.42.24,14.35l-33.7.18-.28,55.82Z"/>
        <path class="cls-1" d="M902.37,153.23c-1.04-.98-.44-3.73-.25-5.4l22.09-.09c-.46,5.82.98,12.23-.54,17.84-.62,2.28-7.57,1.22-8.15-1.63-9.88,4.92-21.24,4.6-30.11-1.63-4.85-3.4-7.5-8.66-7.39-14.16s3.15-10.88,8.42-14.16c12.06-7.5,33.94-5.63,37.68,10.13l-12.03.06c-2.36-4.15-6.64-5.36-11.24-5.09-4.1.25-7.78,2.3-9.19,5.77-1.48,3.64-.76,8.26,2.79,10.83,5.01,3.64,12.19,2.94,16.39-1.53l-8.48-.96Z"/>
        <path class="cls-1" d="M825.52,157.05c.64,3.27.44,6.1.1,9.46l-33.82-.11v-34.99c3.68-.49,7.02-.29,11.45-.23l.35,25.8,21.93.08Z"/>
        <path class="cls-1" d="M546.84,60.65c-1.33-13.91-12.98-18.86-25.41-18.8l-38.23.19c-11.68.06-21.86,5.9-23.25,18.52-1.22,11.14-1.12,22-.02,33.16,1.2,12.22,11.28,18.62,22.31,18.69l42.82.27c5.71-1.41,10.78-1.82,14.99-5.39,4.03-3.41,6.56-8.74,6.91-14.31.7-10.86.9-21.61-.13-32.33ZM531.57,89.42c-.19,5.13-4.26,8.86-9.64,8.85l-37.33-.02c-5.15,0-9.06-3.5-9.36-8.82-.44-7.89-.28-15.78-.1-23.74.13-5.49,4.09-9.52,9.53-9.52h37.57c5.03,0,8.97,3.64,9.27,8.81.48,8.12.37,16.23.06,24.44Z"/>
        <path class="cls-1" d="M450.9,109.75l-17.01-21.38c16.11-3.13,15.92-17.35,14.58-31.15-.85-8.78-8.17-15.06-17.26-15.11l-59.19-.32c-1.91-.01-3.24,1.73-3.24,3.45l.02,64.7c0,4.66,11.51,2.5,15.45,2.32l.62-22.24,32.65-.1,17.59,22.69c3.21-.59,19.85,2.24,15.79-2.87ZM433.23,70.28c-.29,4.42-3.52,7.1-7.63,7.12l-40.73.15c-.5-7.21-.41-14.19-.04-21.86l39.78.02c4.72,0,8.37,2.52,8.6,7.4.1,2.2.2,4.5.03,7.17Z"/>
        <path class="cls-1" d="M728.34,109.84l-16.96-21.38c15.86-3.5,15.85-17.24,14.53-30.88-.86-8.85-7.88-15.39-17.11-15.44l-59.13-.34c-1.99-.01-3.45,1.42-3.45,3.35l.14,67.02c5.13.94,9.93.72,15.06.19l.53-22.46,33.08.21,17.16,22.42c2.53-.33,19.97,2.14,16.15-2.68ZM703.95,77.32l-42.01.12-.26-18.68c-.03-2.09,1.19-3.27,3.32-3.26l37.26.25c3.33.02,6.98,1.5,7.75,4.89,1.04,4.57,1.97,16.65-6.07,16.67Z"/>
        <path class="cls-1" d="M794.78,48.86c-3.25-5.87-8-7.25-14.45-7.26-5.53,0-10.13,1.4-13.08,6.8l-34.79,63.84c6.74.94,11.46.39,16.89.33l8.1-14.49,47.62.04,7.95,14.44c5.55-.06,10.89.85,16.72-.57l-34.95-63.15ZM763.79,86.18l15.8-28.99c.31-.58.99-.81,1.3-.89.51-.14,1.4.36,1.82,1.14l15.64,28.7-34.56.04Z"/>
        <path class="cls-1" d="M270.21,110.01l-33.71-60.91c-3.23-5.83-7.71-7.54-14.29-7.49-5.56.04-10.27,1.2-13.27,6.68l-34.86,63.86c6.36,1.14,11.58.48,16.96.38l7.99-14.52,47.54.19c3.37,4.45,4.59,10.63,8.68,14.1,4.24.04,17.53,2.34,14.96-2.3ZM205.43,86.21l17.08-30.99,17.62,30.93-34.69.05Z"/>
        <path class="cls-1" d="M867.12,134.38c-9.76-6.55-22.99-6.18-32.22,1.04-4.38,3.43-6.58,8.38-6.47,13.48.1,4.97,2.47,9.87,6.93,13.14,9.07,6.66,21.75,7.27,31.49.82,5.39-3.57,7.95-9.13,7.81-14.75-.12-5.22-2.71-10.49-7.54-13.73ZM860.51,153.9c-5.02,5.98-14.51,5.35-18.44-.97-1.95-3.13-1.43-7.13.64-9.85,4.38-5.75,14.65-5.08,18.25.7,1.75,2.81,2.17,7-.45,10.12Z"/>
      </g>
      <g>
        <path class="cls-1" d="M138.99,48.22c-1.3,1.84-3.95,1.61-6.12,2.56-1.67.74-18.64,8.4-16.17,10.24l-17.03,12.48c-2.67,2.46-5.31,4.79-7.93,7-.69-.56-1.63-.44-2.3.18-16.83,15.84-32.56,39.05-42.81,58.96-4.75.73-9.81.77-14.52-.2-1.28-1.17-1.16-3.37.34-6.61-1.15-9.14-1.85-18.36-2.11-27.67-.09-5.33,1.84-8.75,5.81-10.24-.81-1.14-.57-2.38.72-3.73,3.59-3.2,13.26-13.93,18.94-16.37,1.38,1.17,1,2.55-1.14,4.16-2.22,7.85-2.99,16.02-2.3,24.53l16.23-16.79,2.4-.2c-.2-.41-.38-.83-.43-1.27-.11-.88,10.01-9.74,11.42-10.51h2.11s1.87-2.7,1.87-2.7c1.37-1.36,15.97-11.56,16.99-11.76.9-.18,1.77.15,2.55.57.35-.66.73-1.3,1.19-1.86,2.61-3.15,26.17-12.14,30.18-11.44.72.13,1.42.37,2.11.65Z"/>
        <path class="cls-1" d="M104.57,40c-29.15,9.09-51.65,25.42-73.32,47.66L81.14,0l23.42,40Z"/>
        <path class="cls-1" d="M161.9,138.77c1.03,1.34.45,1.63-.76,2.22-14.13.19-28.11-.03-41.95-.67-.91-.24-1.74-.48-2.53-1.03-1.75-1.2-7.6-16.56-8.39-19.72-2.6-3.17-2.65-4.98-.09-5.43,1.06-.19,1.64-.41,2.38-.31-1.25-1.74-.05-2.07,1.76-.83l5.49,7.47c.65-4.65,4.06-7.92,10.21-9.79,1.52-1.99,3.28-3.16,5.26-3.52,4.25,2.74,5.09,1.47,2.5-3.79l.8-1.98c-1.28-2.13-1.1-3.64.54-4.52l24.79,41.9Z"/>
        <path class="cls-1" d="M137.11,96.86c-.08,1.74,1.04,3.23,1.36,5.08-.19.79-1.33,1.33-1.28,2.24,1.38.88,2.12,2.76,1.71,4.02-.32.99-1.59,2.69-3.08,2.03-1.25-.55-2.03-1.75-3.3-1.37-.96.28-1.59,1.46-2.48,2.34-3.77,3.73-12.23,3.48-10.13,10.44.37,1.23-.11,1.79-.63,2.31-1.19,1.19-10.71-13.92-8.72-10.13l-8.4-16c6.15-4.14,12.5-8.43,19.03-12.88l2.34-2.43c.66-2.14,1.75-3.34,3.25-3.61l10.35,17.95Z"/>
        <path class="cls-1" d="M116.7,61.02l10.07,17.88c-.6,3.44-2.68,6.55-6.08,8.37-2.62,1.4-4.56,3.36-6.92,5.11-2.02,1.49-4.97,1.53-6.36,3.92-1.21,2.09-3.41,2.64-5.25,1.52-3.1-5.9-7.6-11.18-10.41-17.33-1.2-2.62,7.54-8.84,9.9-10.64,2.15-1.63,13.77-11.13,15.06-8.84Z"/>
        <path class="cls-1" d="M32.11,139.45c-3.14.69-12.72,1.44-15.34-.35-1.8-1.23-3.85-8.26-2.37-10.55-1.31-5.91.33-9.18,2.97-14.37,0,0-.32.33-.31.32,3.45-5.33,14.96-18.97,19.8-23.3-.35,1.59.73,2.69,2.43,4.15l-6.75,3.14c1.05,2.76-.82,5.34-.46,7.7,1.87,12.27-.53,16.31,1.9,25.19.79,2.88-1.28,5.58-1.86,8.07Z"/>
        <path class="cls-1" d="M69.41,65.5c1.87,1.65,3.07,3.68,1.39,5.69.79,5.03.98,10.38.2,15.34-2.17,2.75-4.79,4.96-7.56,7.7-1.54,1.53-9.86,11.92-11.35,11.17-.45-.23-1.54-.75-1.42-1.78.73-6.19-1.01-12.48.61-18.5,3.68-13.69-4.9-2.03.32-7.65,3.54-3.81,14.22-8.86,17.8-11.96Z"/>
        <path class="cls-1" d="M104.63,114.78c1.95,1.67.81,2.85-1.18,1.22-.18,1.56-1.49,2.27-3.92,2.13-.39.06-1.45.43-1.54.71-.29.95,2.85,18.09,3.34,18.92.27.46,6.45.15,7.72.07l1.47,1.63c1.61-1.6,2.12-.91.95,1.05-4.71.64-10.5.53-15.38,0-4.8-.33-9.65-.54-14.56-.61-5.72-2.82-4.18-15.69,1.93-18.08l8.38-3.56c3.97-1.98,8.38-3.36,12.81-3.48Z"/>
        <path class="cls-1" d="M85.88,56.85c2.42-.28,2.59,1.36.51,4.93,1.85,4.26,1.6,10.05-2.29,12.97-3.22,5-9.43,7.14-13.1,11.78-2.86-.79-.03-6.62-2.04-15.91-.1-.44,1.42-1.14,1.3-1.51-.14-.42-.98-.86-1.8-1.16-.12-.98.75-1.62.95-2.45,4.86-4.21,10.93-5.78,16.47-8.66Z"/>
        <path class="cls-1" d="M108.99,48.87l.69,1.66c-1.54,4.17-2.93,7.62-4.16,10.34-7.5,3.76-13.63,10.47-21.41,13.88-.59.91,5.18-12.36-1.94-14.14,1.5-.87,2.88-.6,3.67-1.45.47-.51.33-1.41.05-2.31,7.37-3.83,14.99-6.21,23.11-7.97Z"/>
        <path class="cls-1" d="M32.11,139.45c4.83.18,9.67.3,14.52.2-.12.23-.48.89-1.06.89l-45.58-.15c5.49-9.33,10.24-18.85,17.38-26.21,1.37,2.83-2.23,6.61-1.84,8.89.54,3.15,1.18,5.86-.41,9.17l3.6,6.9c4.07,1.22,9.34.17,13.39.31Z"/>
        <path class="cls-1" d="M136.85,49.66c-11.51,2.79-20.67,5.88-31.34,11.21-3.06,3.62,2.86-13.56,3.47-12,9.65-2.1,20.16-3.43,30.82-3.81,3.98-.14,5.24-.3,9.08.46-3.65,1.65-8.95,3.39-12.04,4.13Z"/>
        <path class="cls-1" d="M91.82,118.25c-3.19,4.41-10.36.65-11.57,10.84-.43,3.63-1.31,7.31,1.63,10.21,2.04,1.02,15.18-.6,14.2,1.2-4.04.26-31.87.67-33.4-.49-3.34-2.53,1.35-6.49,3.44-8.2,1.09-.9,2.25-1.72,3.46-2.44,6.47-5.11,14.35-8.85,22.24-11.12Z"/>
        <path class="cls-1" d="M108.91,114.14c-1.27,2.08.83,3.53,1.04,5.23.47,3.73,7.15,17.48,9.24,20.95-1.99.9-5.49.72-7.73.19l-.95-1.05c-1.7-.91-2.76-2.91-3.18-5.98l-5.35-12.72c-1.17-2.92-.68-4.5,1.47-4.75.44-.05,1.36-.71,1.18-1.22,1.15-.03,2.9-.45,4.28-.64Z"/>
        <path class="cls-1" d="M69.58,129.37c-2.1,1.66-3.78,4.01-5.71,6.28-.66.77-.49,3.92.46,3.94,5.01.11,9.37-.15,14.05.57,5.98.92,11.95.34,17.69.34h15.38l7.73-.19,41.84.22c1.01,0,.99-1.4.87-1.77.32.54.31.3.66,1.36.14.44.42,1.31-.74,1.31l-93.73-.33c-4.97-.02-9.5.24-14.56-.31,5.42-4.63,10.49-9.1,16.05-11.42Z"/>
        <path class="cls-1" d="M103.45,116c-2.09,4.17,6.64,15.16,7.06,23.46-3.42.17-6.82.57-10.63-.2l-2.75-14.21c-.39-2-.99-5.02-.7-6.78.91-2.21,5.16-2.07,7.02-2.26Z"/>
      </g>
    </g>
  </g>
</svg>