<?xml version="1.0" encoding="UTF-8"?>
<svg id="Camada_2" data-name="Camada 2" xmlns="http://www.w3.org/2000/svg" viewBox="0 0 747.81 160.54">
  <defs>
    <style>
      .cls-1 {
        fill: #fff;
      }
    </style>
  </defs>
  <g id="Camada_1-2" data-name="Camada 1">
    <g>
      <path class="cls-1" d="M80.8,0c18.8,1.78,36.23,9.53,49.55,23.46,4.41,4.61,8.17,9.6,11.24,15.09-.2.76-.76.57-1.34.21-1.29-2.26-2.88-3.47-5.6-3.62-4.9-1.49-9.85-2.55-14.84-3.17-2.57-1.1-5.31-1.79-8.21-2.07-5.25-1.58-10.57-2.87-15.95-3.87-3.93-.93-7.81-1.96-11.66-3.09-2.62-.17-5.07-.75-7.38-1.74-2.11.09-3.8-.5-5.73-1.24,0,0-8.48-1.95-25.45-5.85-3.21-.85-6.4-1.31-9.57-1.39-1.52,1.08-2.27,1.12-2.24.12l-.24-.67C43.85,4.85,57.22.12,70.32,0h10.47Z"/>
      <path class="cls-1" d="M621.52,130.13l-17.29.12c-.42-.15-1.04-.14-1.24-.68l-16.32-43.95-23.12,40.74c-1.51,2.42-3.61,3.74-6.45,3.84l-15.43.04c-.29,0-.56-.25-.68-.36-.16-.15-.13-.46.09-.86l36.56-64.53c1.68-2.97,4.71-4.4,7.95-4.4l16.16.02c.62.11,1.23.25,1.49.94l15.84,41.59,21.82-38.39c1.48-2.61,4.09-3.98,6.92-4.17l14.96.04c.25,0,.42.18.48.27.09.14.22.5.02.86l-37.31,65.89c-.97,1.71-2.36,2.98-4.46,2.99Z"/>
      <path class="cls-1" d="M141.58,38.55c6.38,11.43,10.15,25.14,9.56,38.25-.81.76-1.22.08-1.23-2.04l-.18-.41c-9.71-2.38-19.39-4.71-29.06-6.97.84.66,2.17,1.71,1.38,2.76-.25.39-.57.5-.87.18-15.06-15.65-33.95-25.67-55.72-27.89-10.05-1.02-18.11-.16-27.99,1.13-.73.09-1.46-.04-2.17-.18-1.51.25-1.82-.27-.31-1.05,1.21-.21,2.25-.53,3.12-.95-7.54-1.63-15.05-3.41-22.54-5.34l-2.27-.13c-.86.37-1.6.48-2.24.34,4.1-7.99,14.72-19.03,22.53-23.4,1.33.83.56-1.61,5.37-.62l4.15.86c1.27.26,2.05.32,3.17.63l3.16.88c1.27.35,2.59.6,3.86.88l7.1,1.56,2.87.77,2.5.45c1.65.29,3.02.88,4.71,1.05,1.6.16,3.21,1.43,4.88,1.25,1.55-.17,2.42.54,3.76,1.1.69.29,5.02.33,6.54,1.27.8.5,6.24,1.43,7.55,1.75,1.03.25,1.9.69,3.02.89l5.02.89c1.07.19,2.07.8,3.12,1.02l3.65.75c1.55.32,2.8.97,4.22,1.22l4.87.85c.84.15,1.29.36,2,.81.89.57,2.42.33,3.57.58l6.44,1.4c2.74.59,5.28,1.61,8.15,1.96,4.2,2.41,2,3.3,4.29,3.53Z"/>
      <path class="cls-1" d="M572.19,60.11c.71,0,1.43.49,1.61.84.2.41.04,1.1-.27,1.65l-18.6,32.81c-3.27,5.77-7.14,10.79-11.72,15.52-14.11,14.59-32.51,19.71-52.44,19.92-8.5.09-19.65-.4-27.04-4.58s-7.25-12.09-4.82-19.44c1.44-4.36,3.3-8.29,5.58-12.33l18.68-33.04c.54-.95,1.43-1.45,2.5-1.45h16.77c.88,0,1.94.2,2.48.83.4.47-.03,1.21-.33,1.74l-19.04,33.79c-1.64,2.9-2.7,5.86-3.14,9.06-.59,4.31,1.71,7.77,5.8,9.15s8.51,1.52,12.97,1.22c14.43-.97,25.32-9.15,32.31-21.5l18.56-32.76c.6-1.05,1.53-1.58,2.77-1.57l17.39.11Z"/>
      <path class="cls-1" d="M321.45,102.12l-39.53.02-7.67,13.6,44.52.03c.98.25,2.11.11,2.65,1.02.42.71-.11,1.79-.51,2.5l-5.28,9.43c-.56.99-1.43,1.51-2.68,1.51h-65.98c-.46.01-.68-.18-.84-.3-.23-.19-.43-.7-.15-1.2l36.06-63.64c1.84-3.25,5.13-4.99,8.85-4.99l62.45-.02c.36,0,.55.09.62.19s.23.52.11.73l-5.93,10.47c-1.07,1.9-2.67,2.72-4.96,2.79l-45.51.06-7.76,13.76,39.22.06c.46,0,.82.26.98.43.23.24.3.78.06,1.2l-6.25,11.04c-.48.85-1.28,1.25-2.47,1.32Z"/>
      <path class="cls-1" d="M120.58,90.26c.57-.13,1.13.12,1.66.75,7.5,5,14.47,13.22,19.26,20.83l-.26,1.12c-.63.95-1.4,2.22-1.9,3.26l-1.59-.84c-8.25-8.8-18.61-15.45-30.52-17.82-16.46-3.27-32.03,2.07-46.43,9.9l-.93.11.02.68c-11.34,8.01-22.67,16.04-34.01,24.12l-.75-.37c-7.71-6.85-14.07-15.29-18.26-24.71-.31-.73-.24-1.24.19-1.54l22.66-15.49c5.04-3,10.33-5.67,15.81-7.75.26-.1.55-.12.85-.13s.61.02.92.06c.23-.26.48-.5.75-.72s.53-.41.82-.52c23.16-8.82,50.51-7.3,70.4,7.94l1.31,1.1Z"/>
      <path class="cls-1" d="M122.07,70.14l.65-.14c5.94,7.02,11.76,13.98,16.84,21.87,2.02,3.14,4.11,6.4,5.77,9.74.15.31.23.65.3,1s.09.73.11,1.09l-1.16,2.94c-.23.48-.5.68-.82.62-3.24-4.46-6.43-8.94-9.58-13.45l.12-.68-6.98-8.26c-10.5-11.74-21.06-18.28-36.7-21.45-21.88-4.44-42.93,2.49-61.67,13.79l-1.06.21-1.65,1.78c-8.08,5.2-15.81,10.55-23.21,16.07l-.64-.28c-1.06-4.92-2.39-9.85-2.39-14.92v-8.96c0-5.39,1.27-10.71,2.68-15.9.48-.56,1-1.1,1.65-1.46,8.38-4.63,18.55-7.66,27.75-10.27,1.06-.35,2.15-.37,3.24-.11,11.3-2.35,22.86-2.7,34.43-1.02,20.38,2.96,37.26,12.73,51.51,27.2.29.3.53.49.82.58Z"/>
      <path class="cls-1" d="M135.24,121.91c-3.04,4-6.3,7.82-10.46,11.1-9.78,7.72-21.06,13.71-33.34,16.5-20.2,4.59-41.81.28-58.53-11.5l-.17-.61,27.39-18.98c3.88-2.23,8-4.52,12.22-6.04.24-.08.5-.1.77-.1s.56.04.84.09c.18-.25.36-.48.59-.66,2.45-1.91,11.21-3.44,14.65-3.94,16.26-2.4,32.78,1.88,45.28,12.72.19.16.32.39.44.64s.23.52.31.79Z"/>
      <path class="cls-1" d="M451.41,116.28l-6.88,12.39c-.49.88-1.47,1.58-2.61,1.58l-54.76-.03c-.72,0-1.37-.51-1.61-.86-.3-.44-.19-1.19.17-1.82l37.24-65.83c.57-1.01,1.45-1.55,2.6-1.54l16.43.1c.8,0,1.68.53,2.06.95.52.57.48,1.6-.01,2.48l-27.57,48.77,32.36.09c.99,0,1.94.47,2.38.96.55.61.72,1.84.21,2.76Z"/>
      <path class="cls-1" d="M387.39,116.36l-6.73,12.11c-.56,1-1.48,1.77-2.79,1.77l-54.53-.02c-.69,0-1.38-.43-1.68-.72-.43-.42-.32-1.32.07-2.01l37.17-65.69c.54-.95,1.3-1.62,2.4-1.61l16.62.07c.9,0,1.88.53,2.21,1.04.48.76.27,1.73-.21,2.58l-27.46,48.56,32.58.11c.94,0,1.8.55,2.22,1.04.52.62.64,1.79.1,2.75Z"/>
      <path class="cls-1" d="M151.14,76.79c.07,9.16-2.06,18.41-5.41,26.92-3.5-7.01-7.88-13.56-12.55-20.03-3.22-4.46-6.94-8.17-10.27-12.46l-.84-1.08c-.35-.45-.42-1.18-.97-1.65-.66-.57-1.55-.86-1.73-2.03l13.03,3.11,3.39.78c3.21.74,6.26,1.55,9.51,2.14,1.34.24,2.57.92,3.99,1.06,2.18.21.65,3.6,1.84,3.26Z"/>
      <path class="cls-1" d="M535.85,160.05c-.92.34-1.84.2-2.93.08l-7.07-12.62-.18,12.6c-.75.22-1.43.21-2.25-.02l.02-15.63c1.12-.09,2.05-.11,3.11,0l6.92,12.48.09-12.37c.66-.3,1.43-.22,2.26-.04l.03,15.52Z"/>
      <path class="cls-1" d="M334.98,153.58l-3.08-.27c-.39-.16-.41-1.58.02-1.63,1.72-.23,3.53-.05,5.33-.07v8.18c-2.25.74-4.51.89-6.74.54-3.89-.62-6.28-3.8-6.44-7.63-.17-4.09,2.23-7.59,6.38-8.36,2.04-.38,4.36-.35,6.31.55.63.29.28,1.75-.03,2.16-1.28-.67-2.54-.87-3.96-.93-3.3-.13-5.9,2.14-6.25,5.39-.24,2.25.52,4.32,2.06,5.61,1.79,1.5,4.21,1.71,6.39,1.03v-4.56Z"/>
      <path class="cls-1" d="M635.2,152.97l-5.91.08.02,5.19,6.27.09c.42.31.39,1.55-.03,1.88h-8.58s0-15.78,0-15.78h8.63c.4.45.22,1.27.14,1.95l-6.43.05-.04,4.53,5.85.11c.23.62.21,1.22.07,1.91Z"/>
      <path class="cls-1" d="M450.97,152.92l-5.76.2c-.03,1.87-.14,3.46.07,5.12l6.26.11c.39.34.36,1.48-.02,1.84l-8.56.04-.05-15.79,8.63-.02c.42.47.23,1.27.17,1.94l-6.41.08c-.19,1.53-.16,2.95-.03,4.52l5.66.12c.41.24.41,1.44.06,1.86Z"/>
      <path class="cls-1" d="M359.58,159.89c-2.07.89-4.43.85-6.33-.11-.27-.47.01-1.43.23-1.96,2.12.94,5.74,1.16,6.2-1.42.72-4.01-7.07-2.95-6.76-8.26.1-1.73,1.22-3.13,3.02-3.69s3.65-.35,5.38.26c-.01.77-.1,1.38-.38,2.05-1.88-.91-5.19-1.09-5.59,1.13-.58,3.23,6.64,2.78,6.79,7.66.05,1.76-.66,3.51-2.57,4.34Z"/>
      <path class="cls-1" d="M400.82,158.49c1.37.09,2.45-.27,3.63-.6.28.47.45,1.48.16,2.07-2.25.83-4.9.76-7.18-.15-2.85-1.13-4.41-3.81-4.61-6.8s.75-5.69,3.21-7.35,5.82-2.07,8.57-.84c.3.52,0,1.62-.22,2.08-1.96-.97-4.09-1.05-6.04-.1-1.79.88-2.96,2.76-3.12,5-.25,3.43,1.89,6.47,5.59,6.71Z"/>
      <path class="cls-1" d="M549.25,159.59c-2.13,1.24-4.76,1.21-6.88.19-.3-.42-.02-1.47.22-1.92,2.18.85,5.76,1.12,6.21-1.47.72-4.07-7.36-2.96-6.74-8.49.2-1.8,1.52-3.19,3.47-3.57,1.51-.3,3.26-.31,4.7.41.42.35.01,1.55-.16,1.97-1.96-.75-5.2-1.09-5.61,1.2-.13.72.22,1.55.95,1.97l4.15,2.42c1.26.73,1.7,2.25,1.7,3.55,0,1.41-.55,2.9-2.02,3.75Z"/>
      <path class="cls-1" d="M476.55,159.99c-.54.46-1.46.28-2.21.11l-.05-13.63-4.68-.16c-.39-.26-.37-1.5,0-1.87l11.76-.02c.21.68.16,1.27.04,1.96l-4.79.08-.07,13.54Z"/>
      <path class="cls-1" d="M616.41,159.81c0,.74-1.8.56-2.15.12l-.03-13.47-4.82-.09c-.11-.71-.15-1.27.04-1.97h11.74c.42.49.22,1.27.16,1.95l-4.85.1-.09,13.35Z"/>
      <path class="cls-1" d="M373.71,159.8c0,.72-1.79.56-2.15.12l-.03-13.46-4.86-.09c-.13-.68-.16-1.27.08-1.96h11.72c.38.36.43,1.65,0,1.86-1.48.35-3.15-.02-4.66.18l-.1,13.35Z"/>
      <path class="cls-1" d="M291.81,158.14c2.13.73,8.26-1.31,6.41,2.03l-8.63.03-.03-15.57c.6-.44,1.44-.26,2.22-.12l.03,13.63Z"/>
      <path class="cls-1" d="M346.72,160.02c-.7.36-1.46.29-2.3.05v-15.61c.85-.13,1.49-.14,2.26.06l.04,15.49Z"/>
      <path class="cls-1" d="M386.38,159.79c0,.75-1.63.5-2.16.28l-.03-15.45c.56-.42,1.36-.26,2.23-.13l-.04,15.3Z"/>
      <path class="cls-1" d="M348.37,140.07c-1.1,1.19-2.82,4.08-4.21,2.96.77-.88,1.06-2.15,1.99-2.9.55-.44,1.57-.1,2.22-.07Z"/>
      <path class="cls-1" d="M35.31,43.38c-11.41,2.37-22.18,6.76-32.63,11.84,1.81-6.65,4.46-13.33,8.39-18.97,2.26-1.93,5.57-.51,8.4.17l10.43,2.52,3.36.78,6.6,1.42c-1.69,1.44-3.6,1.28-5.46,2.02.2.38.61.12.91.22Z"/>
      <path class="cls-1" d="M263.02,64.2c-6.21-3.75-18.34-4.09-25.73-4.1l-28.71-.03c-1.89,0-3.54.75-4.51,2.47l-36.99,65.38c-.34.6-.31,1.28-.09,1.63.2.32.71.69,1.27.69l36.04-.1c5.6-.02,10.9-.61,16.36-1.54,5.14-.88,9.87-2.26,14.5-4.64,7.7-3.95,13.97-10.33,17.21-18.29,1.58-3.88.2-7.63-3.36-9.65-1.83-1.04-3.57-1.47-5.58-2.21,3.9-1,7.35-2.1,10.83-3.94,6.48-3.43,11.29-9.27,12.82-16.43.82-3.83-.79-7.27-4.06-9.25ZM228.49,105.29c-1.97,6.59-11.21,10.09-17.22,10.09h-14.16s9.26-16.41,9.26-16.41h12.68c2.65,0,5.19.43,7.46,1.66,1.66.93,2.59,2.61,1.98,4.66ZM240.69,80.92c-4.62,10.01-20.86,9.04-29.82,8.86l8.86-15.68,14.28.04c2.07,0,4.03.66,5.58,1.86,1.52,1.2,1.97,3.02,1.09,4.92Z"/>
      <path class="cls-1" d="M740.12,63.84c-9.92-5.28-26.58-4.91-37.57-3.56-18.25,2.24-34.31,9.97-45.69,24.59-4.75,6.1-8.48,12.7-11.16,19.91-2.85,7.68-3.38,16.64,4.66,21.29,3.38,1.95,7.1,3.2,11.14,3.78,11.84,1.73,23.83,1.36,35.73-1.25,14-3.06,26-10.2,35.14-20.94,6.55-7.7,14.72-20.28,15.41-30.53.39-5.76-2.65-10.63-7.66-13.29ZM722.83,81.46c-.86,7.07-8.07,18.25-12.56,23.87-3.79,4.74-8.58,7.94-14.61,9.46-6.3,1.59-12.55,1.79-18.83.95-4-.54-9.01-2.65-8.33-7.57.96-6.95,7.42-17.62,11.8-23.12,3.98-5,9.05-8.39,15.27-9.96,5.97-1.51,12.06-1.79,18.18-1.09,4.19.48,9.72,2.21,9.08,7.46Z"/>
      <path class="cls-1" d="M315.89,145.88c-2.85-2.43-7.36-2.39-10.14.11-2.17,1.96-2.65,4.83-2.41,7.6.38,4.36,3.82,7.32,8.34,6.91,3.89-.35,6.43-3.17,6.78-6.94.26-2.82-.3-5.75-2.56-7.68ZM315.7,154.94c-.76,2.4-2.73,3.61-4.94,3.58-2.23-.04-4.06-1.4-4.74-3.71-.49-1.65-.48-3.49.06-5.13.74-2.22,2.59-3.53,4.69-3.56,2.24-.04,4.08,1.22,4.88,3.45.6,1.67.62,3.57.05,5.38Z"/>
      <path class="cls-1" d="M587.01,148.63c-1.13-2.87-3.74-4.46-6.79-4.52-3.25-.06-6.07,1.63-7.19,4.72-.77,2.13-.78,4.48-.12,6.66.97,3.16,3.7,5.03,7.17,5.04,3.18,0,5.72-1.57,6.88-4.36,1-2.41,1-5.11.05-7.53ZM580.96,158.45c-2.31.3-4.36-.56-5.36-2.68-.94-1.99-1-4.35-.21-6.39.78-2.02,2.49-3.17,4.41-3.26,2.04-.1,3.85.89,4.77,2.82,1.68,3.5.48,8.98-3.61,9.5Z"/>
      <path class="cls-1" d="M495.02,153.77c-.29-.62-.81-1.01-1.18-1.49,2.08-.62,3.17-2.22,2.98-4.22-.45-4.63-6.59-3.61-10.04-3.56l.04,15.58c.61.2,2.11.37,2.12-.17l.17-6.58c1.18-.26,2.96-.48,3.54.71l2.93,5.94c.33.66,1.79.18,2.38.11l-2.94-6.32ZM489.08,151.13v-4.67c1.8-.17,5.03-.34,5.3,1.92.13,1.06-.38,2.12-1.64,2.53-1.26.42-2.48.3-3.66.21Z"/>
      <path class="cls-1" d="M600.96,152.28c2.12-.6,3.19-2.21,3-4.23-.44-4.6-6.62-3.6-10.03-3.55l.03,15.57c.62.22,2.12.37,2.14-.15l.18-6.6c1.06-.22,2.86-.5,3.41.59l3.03,6.06c.34.67,1.79.18,2.39.11-1.01-2.11-2.64-6.49-4.14-7.81ZM600.05,150.86c-1.29.51-2.61.37-3.82.28v-4.66c1.77-.16,5-.39,5.3,1.91.14,1.02-.31,2.01-1.48,2.48Z"/>
      <path class="cls-1" d="M418.1,144.59c-.73-.32-1.78-.32-2.53-.01l-6.6,15.46c.73.25,2.01.49,2.26-.05l1.74-3.74,7.71.07c.69,1.38.8,2.59,1.58,3.62.43.57,1.82.36,2.34.04l-6.51-15.39ZM413.66,154.34l3.07-7.68,3.12,7.6c-2.05.31-3.99.04-6.19.08Z"/>
      <path class="cls-1" d="M511.36,144.47c-.79-.07-1.8-.25-2.44.06l-6.66,15.53c.63.18,1.99.55,2.3-.13l1.74-3.72h7.56c.81,1.27.87,2.66,1.68,3.71.46.6,1.75.36,2.36.09l-6.56-15.54ZM506.98,154.33l3.06-7.7,3.13,7.66c-2.15.17-4.02.13-6.2.04Z"/>
      <path class="cls-1" d="M563.47,144.58c-2.01-.24-4.05-.24-6.09-.08l.02,15.6c.84.22,1.47.23,2.18-.01l.14-6.22c1.53.01,2.87.13,4.23-.22,2.36-.61,3.51-2.33,3.53-4.55.02-2.44-1.51-4.23-4-4.53ZM562.95,151.73c-1.16.26-2.23.21-3.32.05v-5.31c1.24-.1,2.43-.18,3.54.21,1.21.43,1.94,1.39,1.89,2.57-.05,1.08-.73,2.17-2.11,2.48Z"/>
    </g>
  </g>
</svg>