<svg xmlns="http://www.w3.org/2000/svg" viewBox="0 0 328 72" fill="none">
  <path d="M16 37c0-10.1 7.6-17.9 18.2-17.9 6.4 0 10.8 2.6 13.7 6.3l-6.1 4.3c-1.7-2.3-4.4-3.9-7.6-3.9-6.1 0-10.2 4.7-10.2 11.2 0 6.4 4.1 11.2 10.2 11.2 3.2 0 5.9-1.6 7.6-3.9l6.1 4.2c-2.9 3.8-7.3 6.4-13.7 6.4C23.6 54.9 16 47.2 16 37Zm35.7 17 13.1-34h10.1L88 54h-8.9l-2.1-5.8H62.8L60.7 54h-9Zm13.1-12.8h10.3L70 27l-5.2 14.2ZM91.1 54V20h15.9c7.4 0 11.8 4.8 11.8 10.6 0 5.5-3.5 8.6-6.8 9.4l7 14h-9.1l-5.9-12.8H99V54h-7.9Zm15-19.8c2.9 0 4.7-1.7 4.7-4.1s-1.8-4-4.7-4H99v8.1h7.1Zm17.3 2.8c0-10.6 8.1-17.9 18.4-17.9 7.2 0 11.6 3.7 14.1 7.5l-6.6 3.6c-1.4-2.2-4.2-4.2-7.5-4.2-6 0-10.3 4.6-10.3 11 0 6.5 4.3 11.1 10.3 11.1 2.8 0 5.5-1 6.8-2.3v-3.6h-8.4v-6.8h16.2v13.2c-3.5 3.9-8.4 6.5-14.6 6.5-10.3 0-18.4-7.1-18.4-18.1Zm40.3 17V20h24.1v6.8h-16.2v6.7h15.8v6.8h-15.8v7.1h16.2V54h-24.1Zm28.8 0V20h8.1l15.7 21.5V20h7.9V54h-7.6l-16.2-22.3V54h-7.9Z" fill="#fff" opacity=".92"/>
</svg>
