<svg xmlns="http://www.w3.org/2000/svg" viewBox="0 0 300 72" fill="none">
  <path d="M18 20h24v6.8H26V33h15.7v6.8H26v7.4h16V54H18V20Zm30 0h8V54h-8V20Zm15 0h9.2l7.3 10.9L86.8 20H96l-11.2 16.6L96.5 54h-9.2L79.5 42.3 71.7 54h-9.3l11.8-17.4L63 20Zm36.7 17c0-10.2 7.2-17.8 17.3-17.8 10.2 0 17.4 7.6 17.4 17.8 0 10.2-7.2 17.8-17.4 17.8-10.1 0-17.3-7.6-17.3-17.8Zm26.4 0c0-6-3.5-10.8-9.1-10.8-5.6 0-9.2 4.8-9.2 10.8 0 5.9 3.6 10.8 9.2 10.8 5.6 0 9.1-4.9 9.1-10.8Zm13.4 17V20h17.9c6.4 0 9.7 4.1 9.7 8.7 0 4.3-2.7 7.1-5.9 7.8 3.7.6 6.6 4.2 6.6 8.4 0 5.2-3.5 9.1-9.9 9.1h-18.4Zm16.1-20.7c2 0 3.3-1.3 3.3-3.1 0-1.8-1.3-3.1-3.3-3.1h-8.2v6.2h8.2Zm.3 13.9c2.3 0 3.7-1.3 3.7-3.4 0-1.8-1.3-3.4-3.7-3.4h-8.5v6.8h8.5Zm15.4 6.8V20h15.9c7.4 0 11.8 4.8 11.8 10.6 0 5.5-3.5 8.6-6.8 9.4l7 14h-9.1L214.2 41h-5.1v13.8h-7.9Zm15-19.8c2.9 0 4.7-1.7 4.7-4.1s-1.8-4-4.7-4h-7.1v8.1h7.1Z" fill="#fff" opacity=".92"/>
</svg>
