<svg xmlns="http://www.w3.org/2000/svg" viewBox="0 0 330 72" fill="none">
  <path d="M17 24h28v7H25v6h18v7H25v10h-8V24Zm38 0h8v30h-8V24Zm17 0h8v23h14v7H72V24Zm27 15c0-8.837 6.268-15.7 15.3-15.7 9.032 0 15.3 6.863 15.3 15.7 0 8.836-6.268 15.7-15.3 15.7-9.032 0-15.3-6.864-15.3-15.7Zm22.4 0c0-4.662-3.05-8.1-7.1-8.1s-7.1 3.438-7.1 8.1c0 4.661 3.05 8.1 7.1 8.1s7.1-3.439 7.1-8.1Zm14.6 1V24h8v16c0 4.458 2.48 6.997 6.5 6.997 4.021 0 6.5-2.539 6.5-6.997V24h8v16c0 9.324-5.18 14.7-14.5 14.7S136 49.324 136 40Z" fill="#fff" opacity=".92"/>
  <text x="222" y="45" fill="#fff" font-family="Arial, sans-serif" font-size="18" font-weight="700" letter-spacing="1.5">SUL</text>
</svg>
