<?xml version="1.0" encoding="UTF-8"?>
<svg id="Camada_2" data-name="Camada 2" xmlns="http://www.w3.org/2000/svg" viewBox="0 0 714.1 171.8">
  <defs>
    <style>
      .cls-1 {
        fill: #fff;
      }
    </style>
  </defs>
  <g id="Camada_1-2" data-name="Camada 1">
    <g>
      <path class="cls-1" d="M153.34,49.34c-5.63-12.36-21.5-14.02-33.27-14.6-4.3-.21-8.47-.15-12.75,0l-8.27.3-7.98.32c-3.76.15-7.47.13-11.24.08-1.6-.25-3.06-.3-4.67-.19l-.14,30.69-15.92,7.65c-7.06,3.39-13.67,7.05-20.33,11.13l.26-1.55V.73c2.01-.2,3.9.15,5.9.14l25.24-.08,16.25-.28,16.55-.3c8.39-.15,16.66-.4,25.02-.02l7.08.32c26.82,1.22,49.98,20.37,55.3,47.01l-3.2.25-6.48.3-6.19.29-6.2.3-4.87.24-4.9.24-5.19.18Z"/>
      <path class="cls-1" d="M70.04,140.46c-6.74,12.31-7.71,17.28-10.07,31.34h-6.17c2.05-20.44,8.18-40.24,20.02-57,10.7-15.15,22.28-23.57,38.08-32.8,1.78-1.04,3.91-1.91,6-1.93l18.21-.16c5.01-.04,11.37-3,13.27-8.04.78-2.07,1.14-4.15,1.78-6.34,13.03-3.97,25.92-6.9,39.82-8.41-.74,9.15-1.03,14.58-4.65,23.14-3.6,8.5-8.99,15.87-16.16,21.74-9.72,7.95-21.61,12.52-34.15,13.29-3.16.2-6.18.18-9.33.03l-5.93-.28c-6.33-.3-12.44-.52-18.7.57-8.58,1.49-16.42,5.14-22.54,11.35-3.94,3.99-6.8,8.59-9.48,13.5Z"/>
      <polygon class="cls-1" points="453.73 105.74 431.49 105.74 410.12 64 410.05 105.75 392.3 105.74 392.3 37.9 414.53 37.88 435.93 79.73 436.03 37.89 453.73 37.89 453.73 105.74"/>
      <path class="cls-1" d="M712.09,83.39c-5.39,14.97-20.13,24.53-35.9,23.34-14.01-1.05-26.2-10.26-30.9-23.56-2.62-7.41-2.54-15.52.09-22.84,4.32-12,14.88-20.62,26.79-22.79,13.37-2.44,26.52,2.63,34.62,13.13,7.26,9.42,9.29,21.64,5.31,32.72ZM691.93,82.39c5.9-7.95,4.25-18.91-3.6-24.71-3.14-2.32-6.73-3.19-10.67-2.99-6.23.31-11.44,4.1-14.07,9.8-3.21,6.95-1.46,15.26,4.24,20.39,7.21,6.48,18.27,5.36,24.1-2.49Z"/>
      <polygon class="cls-1" points="510.98 79.5 483.93 79.51 483.89 90.09 517 90.11 516.97 105.75 466.11 105.75 466.13 37.9 516.98 37.89 517 53.52 483.93 53.53 483.89 64.44 510.97 64.44 510.98 79.5"/>
      <path class="cls-1" d="M271.17,84.78c-4.42,2.42-8.95,3.27-13.82,3.82l-14.6.05v17.1s-17.71,0-17.71,0V37.88s31.99.03,31.99.03c5.09.56,9.68,1.52,14.06,4.06,4.95,2.85,8.69,7.16,10.46,12.66,3.51,10.91.71,24.37-10.37,30.14ZM262.1,69.78c3.12-3.53,2.93-8.77-.33-11.96-1.92-1.63-4.2-2.05-6.69-2.48l-12.34-.02v17.09s13.25-.09,13.25-.09c2.27-.02,4.32-1.16,6.11-2.54Z"/>
      <path class="cls-1" d="M364.37,94.83h-26.95s-4.04,10.93-4.04,10.93l-17.81-.06,24.5-67.8h21.6s24.48,67.78,24.48,67.78l-17.82.07-3.96-10.91ZM359.63,81.16l-8.7-23.97-8.67,24.02,17.38-.05Z"/>
      <polygon class="cls-1" points="620.74 105.73 603.03 105.76 603.04 53.25 583.16 53.25 583.16 37.89 641.42 37.89 641.42 53.25 620.74 53.25 620.74 105.73"/>
      <polygon class="cls-1" points="559.96 105.73 542.25 105.76 542.25 53.25 521.59 53.25 521.59 37.89 578.57 37.89 578.57 53.24 559.95 53.25 559.96 105.73"/>
      <polygon class="cls-1" points="309.43 105.73 291.73 105.76 291.73 37.89 309.43 37.89 309.43 105.73"/>
      <path class="cls-1" d="M0,171.72c1.98-15.03,6.08-29.49,12.62-43.13,7.6-15.86,18.58-28.4,32.62-38.85,6.47-4.81,13.32-8.59,20.49-12.33,16.15-8.43,33.11-14.92,50.98-18.87,13.9-3.07,27.76-5.4,41.87-6.45l4.39-.33,4.71-.27,6.36-.26c5.23-.21,10.35-.21,15.74.06-3.6.96-7.03.09-10.58.49-1.2.14-2.27.16-3.59.23-19.53,1.07-38.69,4.22-57.75,8.89-13,3.19-25.38,7.62-37.45,13.33-8.9,4.21-17.4,8.79-25.68,14.12-15.44,9.95-27.7,23.98-35.86,40.44-6.75,13.6-11.45,27.95-14.34,42.9-1.49.11-2.6.11-4.52.03Z"/>
      <path class="cls-1" d="M43.66,143.24c-2.16.41-4.24.08-6.38-.03s-3.98-.13-6.21-.65c3.75-9.38,8.44-17.77,14.37-25.99l9.17,2.3c-4.71,7.86-8.23,15.53-10.94,24.36Z"/>
      <path class="cls-1" d="M38.67,171.79h-15.62s3.25-15.41,3.25-15.41c.25-1.02,1.14-1.8,2.13-2.05l10.06-.02c.99.19,1.8,1.14,1.93,2.13l-1.76,15.34Z"/>
      <path class="cls-1" d="M60.51,110.16l-7.41-2.4c.03-.54.35-1.36.71-1.73,6.77-6.94,11.26-11.65,19.4-17.32l4.85,2.96c-1.27,1.28-1.97,1.88-3.06,2.8-5.44,4.62-10.03,9.93-14.49,15.69Z"/>
      <path class="cls-1" d="M86.69,85.75c-1.49-.92-2.58-1.69-4.03-2.92,7.75-4.47,15.48-7.71,23.63-10.88.88.66,1.49,1.27,2.3,2.38-7.58,3.44-14.74,6.76-21.91,11.41Z"/>
      <path class="cls-1" d="M533.89,139.63c-.25-.13-.18-1.03.06-1.06,1.83-.22,1.27.93,5.38.84,1.23-.03,2.66-.42,3.38-1.21.87-.95,1.1-2.24,1.05-3.54l-.03-.77c-.05-1.37-3.71,3.64-8.51.87-2.29-1.32-3.86-3.91-3.23-6.95s3.91-5.48,7.16-5.17c2.63.26,4.62,2.98,4.6,1.84v-.74s-.03-1.04-.03-1.04c0-.27,1.18-.16,1.18.21l-.06,13.43c-.01,2.6-2.59,3.92-4.77,4.42-1.91.43-4.67-.33-6.17-1.11ZM538.23,134.1c2.98.12,5.03-1.63,5.34-4.38.27-2.37-1.21-4.72-3.27-5.41-2.39-.8-4.95-.14-6.33,2.11-.98,1.59-.83,4.1.17,5.7.85,1.36,2.45,1.91,4.09,1.98Z"/>
      <path class="cls-1" d="M409.47,133.94c-2.76,2.41-6.32,2.14-9.36-.5l-.14,7.06c-.33.1-1.12-.05-1.42-.34v-16.72c0-.25.09-.79.28-.8l1.06-.06c.39-.02-.17,1.87.36,1.79,1-.15,4.78-3.6,8.94-.36,1.56,1.21,2.51,2.8,2.65,4.63.16,2.04-.69,3.84-2.37,5.3ZM406.4,134c2.12-.32,3.54-2.13,3.85-3.76.41-2.12-.22-4.12-1.97-5.28-2.51-1.67-6.02-1.08-7.51,1.46-1.14,1.94-.96,4,.19,5.65s3.08,2.29,5.44,1.93Z"/>
      <path class="cls-1" d="M455.67,131.44l1.31.32c-1.34,2.45-3.75,3.82-6.61,3.47-2.48-.31-4.87-2.15-5.59-4.98-.93-3.66,1.82-7.38,5.67-7.83,3.61-.42,7.26,2.49,7.31,6.59l-11.68.04c.01,2.41,1.64,4.08,3.72,4.73s4.64-.25,5.88-2.33ZM456.11,127.54c-.72-2.68-2.96-3.89-5.19-3.78s-4.21,1.5-4.65,3.8l9.85-.02Z"/>
      <path class="cls-1" d="M485.01,133.64c4.27,1.53,6.31-2.32,6.66-2.16l1.12.51c-2.4,2.98-5.25,4.12-8.49,2.73-1.59-.68-3.27-2.32-3.83-4.46-.97-3.74,1.82-7.51,5.9-7.87,3.65-.32,6.95,2.74,7.14,6.6l-11.75.05c.04,2.18,1.44,3.94,3.25,4.59ZM491.73,127.55c-.35-2.53-2.61-3.81-4.82-3.8s-4.31,1.15-4.97,3.78l9.79.02Z"/>
      <path class="cls-1" d="M369.35,135.12l-1.06.11c-.19.02-.1-.64-.13-.88l-.12-.9c-.02-.19-.84.1-1,.26-2.64,2.63-7.83,1.91-9.87-1.64-1.24-2.15-1.2-4.82.13-6.71,2.37-3.36,6.75-3.97,9.73-1.43.19.16.57.38.74.45.23.1.42-.63.41-.88l-.02-.81c0-.2.55-.12,1.17-.12l.02,12.56ZM367.7,130.55c.24-.97.24-2.35.04-3.24-.49-2.17-2.59-3.37-4.49-3.56-2.16-.21-4.21.82-5.09,2.92-.63,1.5-.52,3.54.32,4.99.99,1.71,3.12,2.5,4.98,2.25s3.71-1.2,4.25-3.37Z"/>
      <path class="cls-1" d="M603.92,135.12l-1.05.11c-.36.04.09-1.83-.28-1.79-1.23.14-3.03,2.98-7.44,1.38-1.74-.63-3.46-2.27-4.03-4.5-.98-3.84,1.73-7.22,5.63-7.94,3.44-.64,5.82,2.82,5.89,1.96l.07-.89.06-.75c.02-.19.51-.12,1.14-.12l.02,12.56ZM595.2,133.44c2.45,1.04,5.06.39,6.49-1.52s1.3-4.71-.26-6.49-4.35-2.22-6.59-1c-1.69.92-2.53,2.87-2.44,4.73.08,1.75.94,3.48,2.81,4.28Z"/>
      <path class="cls-1" d="M426.75,129.93c-.57,3.45-3.49,5.67-6.52,5.65s-6.1-2.43-6.52-5.81c-.48-3.83,2.79-7.14,6.53-7.12,3.74.02,7.15,3.32,6.5,7.28ZM421.17,134.05c2.26-.23,3.71-2.06,4.09-3.87.43-2.02-.21-4.11-1.91-5.23-2.82-1.86-6.87-.9-7.93,2.24-.65,1.93-.33,3.89.81,5.21,1.2,1.39,2.77,1.86,4.94,1.64Z"/>
      <path class="cls-1" d="M529.96,129.39c-.1,2.72-1.87,4.59-3.89,5.55-2.44,1.15-4.93.67-7.06-1.04-1.88-1.52-2.64-4.26-1.88-6.72.64-2.08,2.67-4.03,5.29-4.47,3.9-.65,7.68,2.75,7.54,6.68ZM523.52,134.13c3.23-.06,5.16-2.36,4.95-5.44-.19-2.81-2.5-4.87-5.39-4.71s-4.89,2.44-4.8,5.33,2.15,4.87,5.24,4.81Z"/>
      <path class="cls-1" d="M117.94,70.66c-.89-.55-1.45-1.26-1.9-2.09,2.74-1.05,21.92-6.65,22.71-6.1.26.18.53.85.5,1.18l-21.31,7.01Z"/>
      <path class="cls-1" d="M378.44,123.35c-6.23.18-4.41,8.01-4.69,11.84l-1.46.05v-12.7s1.31.02,1.31.02c.26,0,.07.9.16,1.14l.24.66c.04.12.47-.1.57-.2,2.08-2.06,5.33-2.66,7.45-.91.97.8,1.66,2.31,1.68,3.84l.12,7.27c0,.18-.14.76-.32.77l-1.15.11-.11-9.07c-.03-2.08-1.98-2.87-3.8-2.82Z"/>
      <path class="cls-1" d="M579.65,132.7c2.69,2.14,6.19,1.55,7.92-1.19l1.38.3c-2.22,3.73-6.85,4.62-10.04,1.92-2.73-2.31-3.33-5.79-1.05-8.71,1.29-1.65,3.66-2.94,5.81-2.64s4.1,1.25,4.94,3.18c-.45.5-1.33.18-1.84-.35-2.09-2.17-5.95-2-7.76.39-1.66,2.19-1.48,5.43.64,7.11Z"/>
      <polygon class="cls-1" points="339.53 135.11 338.34 135.2 338.34 118.71 330.99 118.71 331.01 117.53 346.87 117.53 346.89 118.71 339.53 118.71 339.53 135.11"/>
      <polygon class="cls-1" points="515.6 134.04 515.67 135.23 504.48 135.23 504.48 117.56 505.96 117.56 505.95 134.05 515.6 134.04"/>
      <path class="cls-1" d="M466.41,135.38c-2.52.56-5.02-.53-6.6-2.59,1.07-1.1,2.88,2.82,7.03,1.68.98-.27,1.74-.97,1.91-1.85.16-.81-.32-2.28-1.28-2.58l-5.65-1.75c-1.15-.36-2.46-1.82-2.11-3.04.64-2.22,2.98-3.29,5.27-3.02.51.06,5.29,1.07,3.66,2.44-1.87-1.05-3.97-1.7-6.14-1.02-.92.29-1.47,1.12-1.49,1.98s.59,1.68,1.54,1.93l4,1.05c1.45.38,3.19,1.44,3.27,3.1.09,1.84-1.56,3.25-3.41,3.66Z"/>
      <path class="cls-1" d="M395.39,133.86c-2.81,3.03-6.39,1.63-9.27-.77l.82-.82c1.91,2.42,5.32,3.27,7.73,1.43.46-.6.58-2.37.1-2.94-1.44-1.75-4.57-1.08-7.35-2.97-.61-.42-1.19-1.12-1.29-1.63-.13-.65.18-1.93.63-2.35,2.62-2.43,5.96-1.75,8.86.01l-.88.82c-1.84-1.23-3.91-1.6-5.96-.95-1.09.35-2.01,1.71-1.2,2.78,1.52,2.01,4.97,1.25,7.52,3.26,1.47,1.16,1.45,2.88.29,4.13Z"/>
      <path class="cls-1" d="M557.17,135.55c-2.09-.19-3.47-1.22-4.91-2.48l.79-.82c1.8,2.47,5.39,3.28,7.88,1.33.33-.72.37-2.4-.18-2.94-1.86-1.83-4.81-.9-7.38-2.97-.59-.47-1.1-1.43-1.13-2.02-.04-.84.48-1.72,1.17-2.27,3.61-2.88,8.23.57,8.31.49l-.79.77c-1.87-1.07-4.03-1.74-6.3-.88-.64.24-1.17,1.21-1.2,1.89-.03.71.73,1.65,1.53,1.87l4.25,1.15c1.37.37,3.22,1.66,3.11,3.32-.16,2.36-2.77,3.77-5.14,3.56Z"/>
      <path class="cls-1" d="M567.04,132.59c0,1.18,1.36,1.58,2.31,1.5l.79-.07c.2-.02.2.88.06,1.04-.5.61-1.93.49-2.88.06-.74-.34-1.7-1.44-1.71-2.6l-.08-9.15-1.34.12c-.26.02-.46-.59-.4-.85l1.77-.12v-3.79s1.47,0,1.47,0v3.82s2.63,0,2.63,0v.87s-2.64.02-2.64.02l.02,9.15Z"/>
      <path class="cls-1" d="M442.21,134.1l1.05-.06c.2-.01.2.85.06,1.03-.49.61-1.92.49-2.88.06-.74-.33-1.7-1.44-1.71-2.6l-.08-9.19c-.99.1-1.74.5-1.87-.69l1.9-.14.04-3.73c.21-.16,1.39,0,1.4.34l.08,3.33,3.06.32c-.81,1.05-1.68.65-3.06.58l-.05,8.67c0,.45.18,1.21.4,1.49.27.32,1.2.61,1.67.59Z"/>
      <path class="cls-1" d="M429.23,135.2v-12.58s1.33-.07,1.33-.07c.26-.01.05.93.12,1.18l.25.92c.05.18.56-.22.65-.41.71-1.47,2.66-2.48,3.91-2.19.55.13.63,1.02.44,1.93-1.89-.72-4.96.29-5.12,2.72-.18,2.88-.09,5.6-.11,8.5h-1.47Z"/>
      <path class="cls-1" d="M348.38,135.2v-12.58s1.33-.07,1.33-.07c.26-.01.05.92.12,1.18l.25.9c.2.72,1.23-1.9,3.61-2.66.33-.11,1.22.05,1.34.34s.11.92.09,1.6c-1.94-.55-4.94.32-5.14,2.81-.23,2.83-.1,5.58-.13,8.48h-1.47Z"/>
      <path class="cls-1" d="M549.64,135.14l-1.78.06v-12.43c.23-.36,1.41-.26,1.76.15l.03,12.23Z"/>
      <polygon class="cls-1" points="574.12 135.15 572.64 135.21 572.64 122.57 574.12 122.56 574.12 135.15"/>
      <path class="cls-1" d="M148.21,61.37l-.72-1.04c6.74-1.24,13.26-2.51,20.24-3.01l-19.52,4.05Z"/>
      <path class="cls-1" d="M548.56,119.94c-.37.47-1.04.87-1.53.88l1.33-2.87,1.86-.13-1.67,2.12Z"/>
    </g>
  </g>
</svg>