<svg xmlns="http://www.w3.org/2000/svg" viewBox="0 0 328 72" fill="none">
  <path d="M16 54V20h14.6c8.2 0 13.1 4.2 13.1 10.9 0 6.8-4.9 10.9-13.1 10.9H24V54h-8Zm8-18.8h6c3.8 0 5.9-1.6 5.9-4.3 0-2.8-2.1-4.4-5.9-4.4h-6v8.7Zm26.5 2.1c0-9.4 6.6-17.9 17.6-17.9 10.9 0 17.5 8.5 17.5 17.9 0 9.5-6.6 17.9-17.5 17.9-11 0-17.6-8.4-17.6-17.9Zm26.9 0c0-5.5-3.5-10.4-9.3-10.4-5.9 0-9.4 4.9-9.4 10.4 0 5.6 3.5 10.4 9.4 10.4 5.8 0 9.3-4.8 9.3-10.4Zm20.1-17.3 16.3 21.7V20h8V54h-7.7L97.7 32.3V54h-8V20h7.8Zm41.2 7.1H128V20h30.8v7.1H147V54h-8V27.1Zm25.2 10.2c0-9.7 7.5-17.9 17.9-17.9 5.7 0 10.1 2.2 13.2 5.6l-5.1 5c-2.1-2.1-4.6-3.3-7.7-3.3-6 0-10.1 4.6-10.1 10.6 0 6.1 4.1 10.7 10.3 10.7 2.4 0 4.5-.5 6.2-1.6v-4h-7.8v-6.8h15.6V49c-3.1 3.6-7.8 6-14.2 6-10.8 0-18.3-7.8-18.3-17.7Z" fill="#fff" opacity=".92"/>
</svg>
