<svg xmlns="http://www.w3.org/2000/svg" viewBox="0 0 332 72" fill="none">
  <path d="M18 54V20h16c7.2 0 11.8 4.7 11.8 10.6 0 5.5-3.4 8.6-6.8 9.4l7 14h-9.1L31 41.2h-5V54h-8Zm14.8-19.7c2.9 0 4.8-1.8 4.8-4.2s-1.9-4.1-4.8-4.1H26v8.3h6.8ZM50.7 40V20h8v19.7c0 4.6 2.4 7.4 6.8 7.4 4.4 0 6.9-2.8 6.9-7.4V20h8v20c0 8.7-5 14.6-14.9 14.6-9.8 0-14.8-5.9-14.8-14.6ZM87.4 54V20h11.2l8.4 21 8.4-21h11.2V54h-8V30.4L109.2 54h-4.9l-9.4-23.6V54h-7.5Zm43.6-17c0-10.2 7.2-17.8 17.3-17.8 10.2 0 17.4 7.6 17.4 17.8 0 10.2-7.2 17.8-17.4 17.8-10.1 0-17.3-7.6-17.3-17.8Zm26.5 0c0-6-3.6-10.8-9.2-10.8-5.6 0-9.1 4.8-9.1 10.8 0 5.9 3.5 10.8 9.1 10.8 5.6 0 9.2-4.9 9.2-10.8Z" fill="#fff" opacity=".92"/>
  <circle cx="286" cy="36" r="16" stroke="#fff" stroke-width="6" opacity=".92"/>
  <text x="269" y="42" fill="#fff" font-family="Arial, sans-serif" font-size="14" font-weight="700">360</text>
</svg>
