<?xml version="1.0" encoding="UTF-8"?>
<svg id="Camada_2" data-name="Camada 2" xmlns="http://www.w3.org/2000/svg" viewBox="0 0 689.24 226.17">
  <defs>
    <style>
      .cls-1 {
        fill: #fff;
      }
    </style>
  </defs>
  <g id="Camada_1-2" data-name="Camada 1">
    <g>
      <path class="cls-1" d="M660.95,119.35c7.37,15.44,3.97,34.18-7.56,46.05-7.84,8.07-18.89,12.7-30.22,12.7l-91.72.04,2.06-23.74,93.18-.12c9.04-.01,14.15-8.25,14.15-16.06,0-8.32-4.84-14-13.16-14.05l-58.21-.37c-20.66-.13-34.04-17.79-32.81-37.47,1.02-16.22,9-30.17,24.33-36.73,7.05-3.02,15.34-4.45,23.12-3.59,3.36.37,6.4-.17,9.76-.17l95.36-.09-1.68,23.87-112.33.14c-8.97.01-14.45,7.55-14.65,15.53-.1,3.91.4,7.6,2.68,10.54,1.99,2.57,6.09,4.28,9.98,4.31l58.02.36c12.25.08,24.24,7.44,29.69,18.86Z"/>
      <path class="cls-1" d="M261.92,144.15c-.35,5.69,2.42,10.28,8.23,10.27l86.81-.08-1.84,23.82-88.61-.33c-13.46-.05-25.49-10.47-27.61-23.15-1.42-8.49-.26-16.5.33-24.94l4.94-71.17c.36-5.21,3.57-11.76,9.49-11.88l21.96-.44c4.88-.1,9.17,0,14.04.01l74.84.3-1.69,23.09-95.69.04-2.01,30.44,95.66.02-1.7,23.99-95.91.07-1.24,19.94Z"/>
      <path class="cls-1" d="M380.55,111.69l4.49-64.97,23.67-.2-4.61,68.36c-.73,10.81,2.77,20.39,9.83,28.36,8.91,7.92,20.57,11.25,32.73,11.22l38.73-.11L496.2.45l23.68.11-11.52,164.83c-.44,6.35-4.86,12.58-12.01,12.6l-54.28.18c-31.92.1-59.61-20.58-61.53-53.89-.24-4.09-.31-7.93.01-12.59Z"/>
      <path class="cls-1" d="M118.1,154.44c15.77-.21,30.3.52,45.2-.51,16.28-1.12,28.22-13.63,29.37-29.34l1.73-23.51c.59-8.02-1.11-16.12-6.79-22.08-4.99-5.24-12.42-9.12-20.14-9.14l-54.81-.13-1.38,7.67-19.44,2.84c-.6.09-2.64-.41-2.91-.88-.36-.64-.69-1.97-.64-2.74l1.16-16.28c.33-4.64,1.49-8.92,4.77-11.62,3.72-3.07,7.69-2.39,12.4-2.38l64.56.13c27.03.05,47.52,23.17,47.07,49.95-.17,9.74-1,18.77-1.86,28.43-2.65,29.84-26.98,53.11-57.27,53.18l-65.54.15c-6.05.01-12.17-4.76-10.85-11.01l35.37-12.73Z"/>
      <path class="cls-1" d="M47.69,175.95c-31.37,11.1-51.93-21.55-46.95-22.53l78.04-15.47c2.38-.47,4.77-1.78,6.25-3.49-2.05-2.82-4.45-4.88-7.55-6.12l-57.35-22.97c-1.99-.8-3.49-4.52-2.91-6.14.64-1.78,3.03-5.43,5.57-5.79l127-18.32c8.1-1.17,15.51-2.61,23.68.58l-106.27,23.13c-.82.18-2.31,2-2.19,2.79s1.43,1.77,2.57,2.05l81.92,19.69c3.27.78,6.08,4.57,6.44,6.94.44,2.97-1.45,7.89-5.15,9.2l-103.09,36.47Z"/>
      <path class="cls-1" d="M183.67,29.27l.54-16.09-10.27,15.45c-.42.63-1.76,1.56-2.35,1.71-.79.19-2.39-1.08-2.85-1.93l-8.11-15.13-1.58,18.15c-.08.91-1.4,2.35-2.15,2.75s-3.51-.88-3.42-1.99l2.01-27.07c.08-1.07.88-2.55,1.49-3.04.76-.61,3.57.25,4.11,1.26l8.6,16.08c.3.57,1.48,1.57,2.05,1.7s2.11-.73,2.46-1.25l11.25-16.86c.54-.8,3.11-1.41,3.78-.98.85.54,1.43,2.43,1.34,3.71l-1.59,24.25c-.06.86-.13,3.49-.92,3.56-1,.09-3.07.07-4.2,0-1.01-.07-.24-3.14-.2-4.27Z"/>
      <path class="cls-1" d="M404.58,30.57l.95-18.93-13.07,18.15c-4.49-6.3-7.08-11.43-10.83-18.12l-1.41,18.97c-.07.94-2.44,2.37-3.25,2.08s-2.3-1.99-2.23-2.87l1.91-26.38c.1-1.35,2.25-3.28,3.12-3.11s2.35,1.25,2.77,2.03l10.51,19.46,13.35-20.12c.51-.77,2.61-1.49,3.48-1.27s1.98,2.46,1.91,3.59l-1.73,25.71c-.05.71-1.6,2.43-2.13,2.92-.66.62-3.43-.98-3.38-2.11Z"/>
      <path class="cls-1" d="M353.81,32.92c-6.92,1.08-12.26-1.13-15.99-5.66-3.89-4.73-4.34-11.12-1.64-17.14,2.4-5.33,7.76-8.52,12.64-9.58,6.41-1.39,12.61.1,16.91,4.99s4.42,11.41,1.84,17.39c-2.1,4.85-7.23,8.98-13.76,9.99ZM362.23,10.78c-3.24-6.94-12.51-7.16-17.58-2.78-5.04,4.36-6.11,12.72-.86,17.42,4.36,3.91,10.48,3.21,14.92,0,3.84-2.78,6.09-9.14,3.52-14.65Z"/>
      <path class="cls-1" d="M251.12,33.07l-5.57-8.16-8.29-.02-.74,7.38c-.13,1.3-4.77,2.27-5.09.97-.74-4.36-.14-10.48.28-15.21l1.41-15.7,9.34-.47c4.84-.24,10.32.35,14.01,3.89,2.61,2.5,3.19,7.1,1.94,10.68-.94,2.72-3.82,5.23-6.71,7.7l3.69,5.97c.49.79-.06,3.5-.89,3.85s-2.78-.02-3.38-.89ZM248.74,19.29c2.38-.41,3.97-3.61,4.26-5.81.24-1.82-1.36-5.51-3.64-5.92-3.99-.72-7.06-.6-11.19-.46l-.34,12.36c3.93.41,7.16.49,10.91-.17Z"/>
      <path class="cls-1" d="M204.22,24.95l-.91,7.38c-.11.89-2.33,2.19-3.2,2.14-1.05-.06-2.51-2.27-2.42-3.54l2.1-28.58c6.29-.4,11.49-.53,17.02.07,6.48.7,10.2,6.39,8.9,12.64s-6.72,9.59-12.87,9.71l-8.61.17ZM217.53,18.25c3.19-1.79,3.41-8.29.33-9.88-3.88-2.01-8.37-1.63-12.76-1.13l-.47,12.14c4.62.54,8.9,1.11,12.9-1.13Z"/>
      <path class="cls-1" d="M142.42,20.17h-13.09s-.43,9-.43,9l15.54.72c.66.03,1.95.86,2.3,1.4.47.72-1.42,2.86-2.29,2.85l-21.6-.27.88-19.66c.18-4.1.67-7.51,1.55-12.12l19.76-.17c.78,0,2.46,1.39,2.87,1.93.51.67-1.26,2.84-2.19,2.87l-14.86.47c-.76,2.46-1.07,5.09-1.11,8.14,5.8,1.49,14.25-1.24,15.21,1.94.26.85-1.49,2.9-2.54,2.9Z"/>
      <path class="cls-1" d="M284.56,20.11l-13.36.2c-.51,3.5-.73,5.83-.2,8.86l14.03.41c.76.02,2.59.62,3.3.89s-.25,3.22-1.09,3.26c-6.47.35-15.3.27-22.83,0l2.24-31.48,20.33-.43c.9-.02,2.56.91,2.8,1.65.3.93-1.08,3.4-2.11,3.41l-13.97.16c-2.02,1.19-3.03,5.99-2.02,8.47l12.19.21c.9.02,2.57,1.17,3.06,1.73s-1.45,2.64-2.35,2.65Z"/>
      <path class="cls-1" d="M113.19,31.8c-7.71,5.58-22.51,2.18-21.58-2.36,1.04-5.05,8.29,3.02,17.67-.49,1.01-.38,2.06-3.06,1.87-4.08-.22-1.19-2.09-2.74-3.43-3.14l-10.37-3.11c-1.73-.52-3.89-3.76-4.41-5.68-.56-2.06.7-5.06,2.42-7.08,4.45-5.23,11.43-4.24,18.64-3.23.96.13,2.63,3.07,1.97,3.77-3.39,3.62-4.73-1.48-14.12.64-1.23.28-2.96,2.76-2.95,3.98.06,5.02,7.36,3.27,14.99,7.7,4.68,2.72,3.84,9.79-.7,13.07Z"/>
      <path class="cls-1" d="M309.39,23.74c3.73,5.41,10.95,5.22,16.04,2.11.72-.44,2.57-.5,3.3-.24.91.33.84,3.29-.11,4.03-7.57,5.85-20.83,4.58-25.49-4.94-3.75-7.64-.6-16.28,5.31-20.86,10.9-8.46,25.94-.85,22.34,3.07-3.13,3.39-11.19-6.71-19.04,1.26-3.91,3.98-6.28,9.84-2.34,15.57Z"/>
      <path class="cls-1" d="M442.04,225.5c-.59.28-3.67.62-4.6-.01-1.73-1.17-2.46-4.98-4.24-8.25-.62-1.14-4.51-.69-6.14-.47l-1.97,8.85-4.87-.32,4.65-23.45c6.02-.17,19.49-2.43,19.86,5.98.15,3.52-2,6.38-6.49,7.89l3.79,9.78ZM438.21,211.49c1.01-.5,1.98-3.32,1.36-4.07-.51-.62-2.31-1.87-3.19-1.87l-7.13-.04-1.3,6.87c3.55.54,7.18.63,10.25-.89Z"/>
      <path class="cls-1" d="M562.84,225.68c-2.08.07-3.19-7.02-5.36-8.68-1.15-.88-5.52-.8-5.82.6l-1.74,8.11-4.92.04,4.61-24.03,12.6-.16c4.17-.05,7.36,3.27,7.24,7s-3.12,6.24-6.97,7.23l4.57,9.76-4.21.15ZM564.45,208.73c.54-4.15-7.69-3.2-10.47-3.23l-1.31,7.17c5.06-.12,11.13.99,11.78-3.94Z"/>
      <path class="cls-1" d="M106.14,109.98l-18.57-4.68c-1.4-1.71-1.13-6.47.48-7.57,7.42-1.91,14.49-3.48,22.53-4.62l-.48,13.92c-.02.65-.7,2.21-1.11,2.52-.54.42-2.09.62-2.85.43Z"/>
      <path class="cls-1" d="M282.71,224.83l-3.11-7.79c-1.29-.27-4.84-.39-6.43-.3l-1.82,8.46-4.99.67,4.64-24.23,12.09-.11c3.89-.04,7.38,2.83,7.61,6.26.24,3.76-1.98,6.65-6.46,8l3.5,8.87c.4,1.24-4.47,1.53-5.01.18ZM282.66,212.44c1.14-.03,3.08-1.83,3.17-2.85s-1-3.61-1.98-3.78c-2.26-.4-6.37-.31-8.55-.06l-1.26,6.9,8.63-.2Z"/>
      <path class="cls-1" d="M339,224.77c-.26,1.29-5.02,1.32-6.14.73l-6.44-18.84-3.32,17.53c-.15.81-1.94,1.92-2.87,1.86-.82-.05-1.72-2.05-1.54-2.95l4.23-21.08c1.34-.62,4.79-.56,6.1.24l6.28,18.11,3.44-16.45c.13-.64.74-1.78,1.1-2.31.48-.7,3.65.44,3.44,1.5l-4.3,21.66Z"/>
      <path class="cls-1" d="M514.24,215.93c-3.03,10.1-12.99,10.91-23.01,9.38l4.43-23.45c5.6-.54,11.64-1.08,15.95,2.41,3.54,2.86,3.79,7.79,2.63,11.66ZM508.64,207.58c-1.83-2.31-6.18-2.36-8.69-1.81l-2.97,15.69c3.71.98,8.3.27,10.76-2.5s3.64-7.94.9-11.39Z"/>
      <path class="cls-1" d="M540.16,204.02c5.23,4.88,3.05,13.25-1.02,17.68s-12.62,6.48-17.91,1.61c-4.97-4.58-3.37-13.23.77-17.79s12.93-6.38,18.16-1.49ZM536.09,206.29c-1.16-.85-4.25-1.41-5.86-1.01-3.42.86-5.76,3.62-6.32,5.94-.84,3.45-1.17,7.6,1.49,9.64,2.48,1.9,6.32,1.4,8.86-.35,4.01-2.78,4.96-11.93,1.83-14.22Z"/>
      <path class="cls-1" d="M678.6,207.24c1.92,4.2,1.03,9.32-1.47,12.76-2.22,3.06-6.42,5.68-10.74,5.71l-10.46.09,4.34-22.95c3.75-2.36,15.1-2.7,18.33,4.38ZM672.86,218.68c2.04-2.42,2.52-7.23,1.47-9.91-1.39-3.53-6.98-4.26-9.65-2.56l-3.01,15.36c4.07.43,8.32.52,11.19-2.89Z"/>
      <path class="cls-1" d="M418.32,211.61c-.22,5.87-3.09,10.57-7.29,12.73-4.55,2.33-10.52,2.76-14.57-.97s-3.59-10.1-1.3-14.88,6.79-7.17,12.71-7.21,10.71,3.61,10.46,10.33ZM410.75,205.98c-1.71-.99-5.27-1.16-7.44-.01-4.63,2.46-6.37,9.65-3.43,14.2,1.67,2.58,6.42,2.27,9.08.75,4.25-2.42,6.32-12.33,1.8-14.94Z"/>
      <path class="cls-1" d="M311.08,225.96c-2.99-1.01-1.46-6.12-2.94-6.25l-3.73-.34c-11-1.01-3.7,9.02-13.11,5.91l12.64-22.74c.82-1.48,5.33-1.43,6.61-.28l3.75,22.42c-.25.71-2.5,1.52-3.21,1.28ZM308.13,215.39l-1.55-9.41-4.94,9.37c1.95.1,4.89.13,6.5.05Z"/>
      <path class="cls-1" d="M623.27,224.3c-5.26,2.72-15.59,3-17.06-3.77-.22-1,3.31-1.9,4.2-.96,1.44,1.53,4.86,3.44,8.24,2.56,1.36-.36,3.15-2.01,3.26-3.2.34-3.89-5.7-2.61-11.63-7.11-1.49-1.13-1.52-5.31-.42-6.93,3.19-4.69,15.45-5.19,17.84.48.31.73-1.71,2.76-2.36,2.41l-3.5-1.87c-.99-.53-3.28-1.15-4.46-1.31-1.25-.16-3.79,2.01-3.09,3.74,1.6,3.9,11.4,2.19,12.55,8.97.44,2.58-1.04,5.66-3.58,6.98Z"/>
      <path class="cls-1" d="M484.03,226.01c-2.47.74-2.16-6.16-3.13-6.25l-3.76-.38c-10.49-1.07-3.76,8.96-13.07,5.99l13.04-23.48c1.73-.39,4.6-.21,6.15.41l3.95,22.76-3.18.95ZM481.25,215.63l-2.11-9.2-4.91,9.01,7.02.19Z"/>
      <path class="cls-1" d="M589.43,225.9c-1.87.2-1.7-5.91-2.51-6.02l-3.47-.5c-10.43-1.51-4.81,9.12-13.41,5.75l12.39-22.38c.89-1.61,6.4-1.84,6.69-.15l4.04,22.92-3.73.4ZM586.92,215.58l-1.81-9.38-5.32,9.42,7.13-.04Z"/>
      <path class="cls-1" d="M375.11,217.13l-2.02,7.94c-.26,1.01-4.13.85-4.62-.09l4.27-23.29c6.69-.37,18.33-1.72,18.33,7.14,0,2.67-1.93,6.57-5.12,7.43s-6.76.79-10.84.88ZM386.05,209.56c.01-.93-.82-3.43-1.72-3.54l-7.15-.82-1.21,8.02c3.46.23,10.02.67,10.08-3.67Z"/>
      <path class="cls-1" d="M363.08,213.82c2.37,1.68,2.41,5.93,1.4,7.75-3.24,5.83-16.58,6.49-19.66-.13-.43-.92,1.75-2.95,2.41-2.49l2.91,2c1.39.96,4.46,1.37,6.98,1.22,1.13-.07,3.17-2.19,3.17-3.28-.01-4.36-7.91-2.78-11.89-7.53-1.63-1.94-.92-6.39.72-7.63,4.25-3.2,15.63-3.78,17.09,2.34-.06.61-2.56,2.1-3.29,1.6l-3.2-2.18c-1.31-.89-5.01-.91-6.44-.06-.59.35-.96,2.56-.68,3.18,1.32,2.9,5.09,1.4,10.47,5.22Z"/>
      <path class="cls-1" d="M640.86,206.1c-5.49,3.25-6.22,12.9-1.86,15.31,2.57,1.42,6.3.32,8.47-1.56l2.06-1.79c.56-.49,2.77,1.86,2.2,2.86-2.82,4.97-13.79,7.76-18.54,1.2-3.66-5.05-2.15-12.39,2-16.9,3.81-4.14,11.03-5.29,16.41-2.45,1.29.68,2.99,3.26,3.33,4.53-4.83,4.87-6.12-5.91-14.06-1.2Z"/>
      <path class="cls-1" d="M255.55,222.93c-.27,1.45-1.63,3.1-2.57,3.1-1.66,0-2.79-1.95-2.47-3.58l3.24-16.53-6.59-.62-.82-1.8c-.28-.62,1.81-1.99,2.52-1.99l18.23.11-.17,2.79c-.04.74-2.37.99-3.18,1.07l-4.98.47-3.21,16.99Z"/>
      <path class="cls-1" d="M456.85,223.54c-.24,1.3-2.28,2.7-3.47,2.51-.99-.16-1.67-2.56-1.45-3.65l3.31-16.43-6.73-.69-.86-1.74c-.31-.63,1.98-2.14,2.83-2.13l18.09.28c.41,2.23-1.51,3.71-3.26,3.83l-5.15.36-3.31,17.66Z"/>
    </g>
  </g>
</svg>